<svg xmlns="http://www.w3.org/2000/svg" xmlns:xlink="http://www.w3.org/1999/xlink" width="500" zoomAndPan="magnify" viewBox="0 0 375 374.999991" height="500" preserveAspectRatio="xMidYMid meet" version="1.0"><defs><clipPath id="542c6c2b9a"><path d="M 19.953125 19.964844 L 354.683594 19.964844 L 354.683594 354.695312 L 19.953125 354.695312 Z M 19.953125 19.964844 " clip-rule="nonzero"/></clipPath><clipPath id="a385009912"><path d="M 187.320312 19.964844 C 94.886719 19.964844 19.953125 94.898438 19.953125 187.332031 C 19.953125 279.765625 94.886719 354.695312 187.320312 354.695312 C 279.75 354.695312 354.683594 279.765625 354.683594 187.332031 C 354.683594 94.898438 279.75 19.964844 187.320312 19.964844 Z M 187.320312 19.964844 " clip-rule="nonzero"/></clipPath><clipPath id="8f8a9bc6e0"><path d="M 35.105469 104.375 L 339 104.375 L 339 269 L 35.105469 269 Z M 35.105469 104.375 " clip-rule="nonzero"/></clipPath></defs><g clip-path="url(#542c6c2b9a)"><g clip-path="url(#a385009912)"><path fill="#222222" d="M 19.953125 19.964844 L 354.683594 19.964844 L 354.683594 354.695312 L 19.953125 354.695312 Z M 19.953125 19.964844 " fill-opacity="1" fill-rule="nonzero"/></g></g><g clip-path="url(#8f8a9bc6e0)"><path fill="#ffffff" d="M 333.582031 219.488281 C 333.4375 223.511719 334.371094 230.585938 330.582031 233.242188 C 330.308594 233.425781 330.121094 233.644531 329.992188 233.890625 C 318.9375 241.363281 300.976562 240.992188 288.121094 244.316406 C 273.789062 248.015625 259.480469 251.75 245.160156 255.46875 C 244.753906 255.066406 244.175781 254.839844 243.457031 255.035156 C 216.417969 262.316406 188.996094 265.441406 161.011719 264.460938 C 160.578125 264.441406 160.253906 264.578125 159.96875 264.765625 C 140.613281 264.773438 114.96875 265.90625 98.535156 255.566406 C 98.78125 252.84375 99.027344 250.117188 99.273438 247.394531 C 99.519531 244.679688 99.480469 240.980469 101.730469 239.082031 C 101.949219 239.339844 102.214844 239.527344 102.527344 239.644531 C 102.625 239.703125 102.703125 239.78125 102.824219 239.820312 C 144.457031 254.398438 187.84375 247.835938 230.257812 240.597656 C 230.363281 240.578125 230.425781 240.519531 230.511719 240.488281 C 240.015625 239.917969 248.601562 237.007812 257.257812 233.664062 C 258.074219 233.898438 258.976562 233.515625 259.441406 232.816406 C 262.085938 231.785156 264.730469 230.730469 267.4375 229.71875 C 281.640625 224.359375 296.382812 220.640625 311.089844 216.941406 C 311.335938 216.882812 311.519531 216.773438 311.699219 216.65625 C 319.507812 215.761719 326.804688 213.125 333.375 208.710938 C 334.988281 211.226562 333.679688 216.746094 333.582031 219.488281 Z M 40.523438 220.316406 C 39.222656 215.171875 38.710938 209.898438 42.675781 205.757812 C 70.953125 212.042969 97.933594 213.558594 126.46875 213.480469 C 123.695312 214.789062 120.910156 216.078125 118.128906 217.375 C 117.28125 216.667969 116.050781 217.050781 115.453125 217.898438 C 109.128906 220.078125 105.605469 225.46875 103.324219 231.46875 C 81.785156 230.859375 60.921875 227.121094 40.523438 220.316406 Z M 49.207031 188.042969 C 49.285156 188.132812 49.34375 188.230469 49.453125 188.308594 C 56.40625 193.226562 66.992188 192.921875 75.125 193.050781 C 89.828125 193.296875 103.933594 191.832031 118.363281 195.382812 C 118.492188 195.960938 118.875 196.472656 119.632812 196.671875 C 125.335938 198.15625 135.921875 202.070312 141.164062 197.566406 C 145.875 193.511719 143.160156 187.867188 140.453125 183.332031 C 148.273438 180.972656 152.964844 173.722656 159.171875 168.550781 C 162.09375 173.960938 166.726562 178.109375 172.363281 180.429688 C 172.234375 180.589844 172.1875 180.757812 172.125 180.921875 C 172.007812 180.960938 171.890625 181.011719 171.78125 181.082031 C 171.773438 181.082031 171.761719 181.082031 171.753906 181.089844 C 168.988281 182.832031 166.027344 185.210938 165.96875 188.683594 C 161.945312 191.632812 157.921875 194.59375 153.902344 197.546875 C 153.210938 198.058594 153.015625 198.804688 153.132812 199.484375 C 147.09375 203.261719 140.808594 206.574219 134.414062 209.691406 C 134.367188 209.683594 134.335938 209.664062 134.289062 209.664062 C 103.007812 210.027344 73.460938 208.847656 42.753906 201.921875 C 43.816406 196.808594 45.960938 192.136719 49.207031 188.042969 Z M 109.796875 172.425781 C 109.855469 172.453125 109.894531 172.503906 109.964844 172.523438 C 119.316406 175.738281 125.925781 184.757812 136.480469 184.050781 C 139.085938 188.261719 143.082031 195.164062 135.28125 195.675781 C 131.042969 195.953125 126.183594 194.527344 121.964844 193.375 C 121.84375 192.777344 121.460938 192.234375 120.683594 192.027344 C 110.574219 189.324219 100.777344 188.851562 90.351562 189 C 80.050781 189.144531 65.542969 191.410156 55.394531 187.226562 C 74.191406 186.894531 92.820312 180.292969 109.796875 172.425781 Z M 130.453125 163.808594 C 133.746094 168.144531 138.410156 172.621094 143.789062 171.589844 C 143.917969 171.558594 144.003906 171.492188 144.105469 171.453125 C 144.144531 171.453125 144.171875 171.441406 144.210938 171.433594 C 144.332031 171.402344 144.429688 171.421875 144.554688 171.371094 C 146.453125 170.625 147.617188 169.160156 147.675781 167.074219 C 147.734375 165.007812 145.027344 164.722656 144.171875 166.160156 C 142.746094 164.144531 140.996094 162.246094 139.679688 160.167969 C 144.035156 157.828125 148.402344 155.476562 152.757812 153.128906 C 153.410156 154.472656 154.273438 155.761719 155.230469 157.011719 C 154.875 157.957031 155.128906 159.207031 156.339844 159.65625 C 157.492188 160.089844 158.71875 160.089844 159.859375 159.628906 C 161.445312 158.988281 161.386719 156.972656 160.421875 156.175781 C 161.660156 153.539062 162.566406 150.550781 161.042969 147.824219 C 160.914062 147.597656 160.765625 147.421875 160.617188 147.234375 C 163.953125 147.332031 167.269531 147.679688 170.109375 147.757812 C 170.652344 148.542969 171.171875 149.339844 171.683594 150.15625 C 171.339844 151.257812 171.910156 152.683594 173.40625 152.683594 C 174.152344 152.683594 174.910156 152.683594 175.65625 152.683594 C 177.683594 152.683594 178 150.117188 176.671875 149.222656 C 178.066406 145.671875 179.59375 140.871094 177.695312 137.457031 C 179.386719 136.847656 181.027344 136.148438 182.621094 135.34375 C 183.890625 137.792969 185.757812 139.839844 188.050781 141.402344 C 187.617188 142.386719 187.863281 143.605469 189.203125 143.820312 C 190.382812 144.007812 191.464844 143.929688 192.4375 143.183594 C 193.253906 142.554688 193.667969 141.558594 193.117188 140.597656 C 192.96875 140.332031 192.703125 140.125 192.410156 139.945312 C 192.988281 138.15625 193.066406 136.128906 193 134.25 C 197.425781 135.402344 201.605469 133.769531 205.007812 130.976562 C 205.046875 131.507812 205.066406 132.027344 205.125 132.558594 C 204.761719 133.082031 204.632812 133.761719 205.078125 134.46875 C 205.902344 135.835938 207.164062 136.554688 208.746094 136.59375 C 210.289062 136.632812 210.851562 135.136719 210.449219 134.015625 C 212.464844 131.929688 213.792969 129.382812 214.382812 126.628906 C 214.390625 126.621094 214.410156 126.628906 214.421875 126.621094 C 218.34375 125.476562 222.230469 125.4375 226.046875 126.382812 C 223.980469 127.761719 222.082031 129.460938 220.382812 131.527344 C 220.214844 131.734375 220.117188 131.949219 220.046875 132.175781 C 218.160156 131.457031 216.113281 131.242188 214.183594 132.046875 C 211.875 133.023438 210.269531 135.234375 210.359375 137.78125 C 196.078125 146.675781 179.898438 158.035156 163.628906 163.296875 C 163.15625 162.460938 162.152344 161.941406 161.082031 162.558594 C 153.832031 166.789062 147.734375 178.375 139.265625 179.832031 C 138.84375 179.898438 138.429688 179.929688 138.027344 179.96875 C 137.445312 179.703125 136.796875 179.761719 136.265625 180.066406 C 127.539062 180.117188 121.511719 173.714844 113.886719 170.09375 C 119.78125 168.707031 125.90625 167.761719 130.453125 163.808594 Z M 147.449219 149.980469 C 147.714844 149.949219 147.988281 149.871094 148.273438 149.675781 C 149.25 149.015625 150.351562 148.5625 151.5 148.1875 C 151.511719 148.621094 151.539062 149.046875 151.597656 149.449219 C 147.105469 151.878906 142.597656 154.308594 138.105469 156.726562 C 138.007812 156.351562 137.984375 155.941406 137.9375 155.546875 C 141.515625 154.40625 144.703125 152.515625 147.449219 149.980469 Z M 212.679688 112.847656 C 216.359375 110.597656 219.949219 108.785156 223.636719 108.972656 C 219.976562 112.476562 215.660156 115.089844 211.253906 117.601562 C 210.78125 117.875 210.546875 118.25 210.425781 118.640625 C 209.414062 118.808594 208.421875 119.054688 207.4375 119.410156 C 206.550781 119.210938 205.628906 119.558594 205.449219 120.71875 C 205.410156 120.992188 205.390625 121.257812 205.363281 121.535156 C 204.988281 121.574219 204.625 121.703125 204.28125 122.007812 C 204.152344 122.125 204.003906 122.253906 203.867188 122.371094 C 203.75 122.300781 203.660156 122.210938 203.523438 122.164062 C 201.839844 121.5625 200.167969 121.070312 198.515625 120.726562 C 203.386719 118.445312 207.859375 115.800781 212.679688 112.847656 Z M 227.835938 110.144531 C 228.191406 110.332031 228.546875 110.46875 228.898438 110.703125 C 232.855469 113.253906 235.792969 117.914062 238.460938 121.976562 C 237.21875 122.125 236.011719 122.339844 234.820312 122.625 C 234.691406 122.320312 234.515625 122.027344 234.199219 121.78125 C 229.636719 118.328125 222.9375 118.101562 217.117188 118.554688 C 220.972656 116.210938 224.660156 113.636719 227.75 110.292969 C 227.789062 110.242188 227.796875 110.191406 227.835938 110.144531 Z M 243.769531 125.4375 C 247.824219 125.539062 262.734375 127.230469 264.9375 132.363281 C 263.011719 132.992188 261.179688 134.015625 259.507812 135.578125 C 259.410156 135.570312 259.339844 135.53125 259.234375 135.53125 C 255.859375 135.648438 252.664062 136.601562 249.8125 138.421875 C 249.554688 138.589844 249.359375 138.785156 249.21875 139.003906 C 248.503906 139.414062 247.773438 139.839844 247.066406 140.28125 C 247.015625 140.273438 246.988281 140.230469 246.929688 140.230469 C 240.003906 139.109375 233.179688 139.59375 226.222656 140.273438 C 226.15625 140.28125 226.097656 140.320312 226.027344 140.332031 C 225.683594 140.035156 225.339844 139.75 224.984375 139.476562 C 225.40625 137.96875 225.683594 136.328125 224.9375 134.882812 C 224.652344 134.3125 224.21875 133.859375 223.726562 133.484375 C 228.898438 127.660156 235.992188 125.242188 243.769531 125.4375 Z M 280.882812 139.148438 C 282.101562 139.847656 283.625 140.65625 285.199219 141.550781 C 282.5625 140.171875 279.847656 139.082031 277.605469 138.226562 C 273.378906 136.59375 268.359375 135.253906 264.269531 136.691406 C 269.542969 133.699219 275.769531 136.199219 280.882812 139.148438 Z M 278.707031 126.726562 C 280.046875 123.804688 281.011719 120.550781 284.796875 120.285156 C 287.296875 120.097656 289.695312 121.394531 291.828125 122.734375 C 290.925781 123.804688 290.117188 125.015625 289.449219 126.195312 C 289.410156 126.265625 289.417969 126.3125 289.390625 126.382812 C 289.113281 126.394531 288.839844 126.382812 288.554688 126.414062 C 283.863281 126.914062 280.054688 129.363281 278.582031 133.691406 C 277.339844 133.148438 276.09375 132.71875 274.832031 132.375 C 276.515625 130.859375 277.714844 128.921875 278.707031 126.726562 Z M 301.371094 125.230469 C 303.179688 127.191406 304.675781 129.558594 306.171875 131.832031 C 303.464844 130.761719 300.957031 128.753906 298.242188 127.730469 C 296.777344 127.191406 295.242188 126.796875 293.6875 126.558594 C 295.644531 123.679688 298.214844 121.828125 301.371094 125.230469 Z M 310.007812 136.355469 C 308.1875 142.101562 308.679688 149.605469 308.382812 155.164062 C 308.253906 155.25 308.109375 155.3125 307.980469 155.449219 C 304.4375 159.175781 299.207031 150.902344 297.839844 148.484375 C 297.789062 148.40625 297.730469 148.367188 297.683594 148.296875 C 295.4375 142.328125 288.101562 138.1875 282.054688 135.292969 C 284.726562 125.871094 297.042969 131.359375 302.5625 134.292969 C 305.089844 135.640625 307.4375 136.484375 310.007812 136.355469 Z M 307.960938 118.574219 C 308.335938 116.558594 308.886719 112.347656 310.804688 111 C 312.042969 111.039062 313.273438 111.175781 314.492188 111.519531 C 314.570312 111.539062 314.679688 111.582031 314.777344 111.601562 C 312.789062 112.574219 311.304688 114.5 310.722656 116.761719 C 310.417969 116.753906 310.125 116.722656 309.820312 116.722656 C 308.511719 116.703125 307.929688 117.777344 308.019531 118.789062 C 307.980469 118.898438 307.929688 118.996094 307.890625 119.125 C 307.921875 118.9375 307.921875 118.761719 307.960938 118.574219 Z M 319.539062 117.726562 C 319.027344 117.628906 318.503906 117.53125 317.984375 117.453125 C 317.953125 116.539062 317.867188 115.632812 317.707031 114.726562 C 319.292969 114.796875 320.394531 116.273438 319.539062 117.726562 Z M 319.8125 127.828125 C 319.703125 127.859375 319.597656 127.847656 319.46875 127.898438 C 319.253906 127.988281 319.054688 128.105469 318.847656 128.203125 C 318.621094 128.171875 318.386719 128.164062 318.132812 128.222656 C 315.40625 128.851562 313.488281 130.269531 312.101562 132.148438 C 312.050781 132.15625 312.003906 132.15625 311.953125 132.167969 C 311.128906 128.339844 310.929688 124.476562 311.492188 120.578125 C 314.460938 120.71875 317.402344 121.089844 320.304688 121.730469 C 319.753906 123.6875 319.753906 125.714844 319.8125 127.828125 Z M 300.523438 157.710938 C 303.21875 159.941406 306.328125 161.144531 309.21875 159.292969 C 310.28125 159.636719 311.785156 159.066406 311.972656 157.59375 C 312.496094 153.472656 312.800781 149.351562 312.925781 145.1875 C 312.988281 143.230469 312.996094 141.019531 313.332031 138.964844 C 313.597656 141.597656 314.460938 144.148438 314.972656 146.742188 C 316.28125 153.363281 314.214844 165.402344 303.800781 160.289062 C 302.621094 159.519531 301.546875 158.636719 300.523438 157.710938 Z M 144.222656 226.40625 C 165.398438 226.011719 186.015625 221.691406 207.191406 224.703125 C 207.339844 224.78125 207.476562 224.871094 207.671875 224.910156 C 211.835938 225.753906 216.269531 223.089844 216.378906 218.546875 C 216.4375 216.117188 215.285156 213.894531 213.890625 211.996094 C 213.082031 210.894531 212.226562 209.59375 211.273438 208.445312 C 211.617188 208.316406 211.941406 208.082031 212.179688 207.65625 C 214.921875 202.59375 217.5 197.9375 220.371094 193.550781 C 227.394531 198.195312 234.015625 203.367188 240.023438 209.289062 C 246.300781 215.488281 250.5 223.078125 254.90625 230.625 C 246.445312 233.871094 237.917969 236.625 228.496094 236.851562 C 228.035156 236.859375 227.691406 237.039062 227.40625 237.253906 C 186.773438 244.167969 145.460938 250.117188 105.546875 236.722656 C 107.375 230.457031 110.089844 223.875 116.515625 221.535156 C 122.277344 228.214844 136.699219 226.550781 144.222656 226.40625 Z M 195.96875 209.28125 C 200.179688 210.292969 203.796875 210.902344 207.320312 209.8125 C 208.902344 211.082031 210.742188 213.816406 211.550781 215.230469 C 212.9375 217.691406 212.730469 221.722656 209.089844 221.289062 C 208.933594 221.222656 208.792969 221.140625 208.597656 221.113281 C 195.082031 219.125 181.835938 219.714844 168.261719 220.894531 C 159.476562 221.664062 130.207031 226.945312 120.832031 220.265625 C 133.414062 214.394531 146.109375 208.710938 157.726562 201.058594 C 158.050781 200.851562 158.238281 200.585938 158.375 200.300781 C 170.21875 198.882812 184.902344 206.605469 195.96875 209.28125 Z M 195.695312 195.617188 C 198.910156 197.074219 202.085938 198.492188 205.480469 199.503906 C 205.304688 200.703125 206.246094 202.109375 207.792969 201.714844 C 209.570312 201.265625 210.839844 199.976562 211.332031 198.214844 C 211.726562 196.777344 210.527344 195.863281 209.386719 195.882812 C 208.273438 193.296875 206.582031 191.132812 204.4375 189.363281 C 205.324219 185.96875 206.796875 182.871094 208.902344 180.105469 C 210.398438 182.164062 212.140625 183.875 214.46875 184.777344 C 214.46875 185.898438 215.355469 186.53125 216.359375 186.65625 C 218.609375 186.953125 220.726562 185.753906 221.847656 183.824219 C 222.347656 182.960938 222.074219 182.144531 221.511719 181.613281 C 221.464844 177.695312 219.839844 174.382812 217.527344 171.410156 C 218.21875 170.792969 218.894531 170.183594 219.585938 169.5625 C 222.082031 170.988281 224.167969 172.554688 226.636719 173.496094 C 226.617188 174.460938 227.21875 175.386719 228.445312 175.296875 C 229.480469 175.226562 230.34375 174.941406 231.101562 174.472656 C 231.898438 174.351562 232.617188 173.742188 232.792969 172.925781 C 232.8125 172.898438 232.84375 172.878906 232.863281 172.847656 C 233.71875 171.695312 232.941406 170.605469 231.859375 170.25 C 230.335938 167.515625 228.625 164.980469 226.324219 163.0625 C 228.386719 161.332031 230.34375 159.480469 232.164062 157.496094 C 234.566406 159.207031 237.09375 160.632812 239.835938 161.566406 C 239.777344 162.550781 240.367188 163.59375 241.648438 163.601562 C 242.867188 163.621094 244.027344 163.277344 245.019531 162.65625 C 245.089844 162.667969 245.160156 162.675781 245.226562 162.6875 C 246.75 162.785156 247.3125 161.339844 246.929688 160.199219 C 246.949219 159.433594 246.546875 158.734375 245.953125 158.351562 C 245.160156 156.628906 244.214844 155.144531 243.101562 153.835938 C 246.320312 151.21875 249.703125 148.847656 253.234375 146.683594 C 253.882812 147.273438 254.601562 147.777344 255.386719 148.1875 C 254.058594 149.457031 255.789062 152.035156 257.777344 151.089844 C 259.175781 150.433594 260.257812 149.371094 261.015625 148.023438 C 261.179688 147.71875 261.238281 147.433594 261.25 147.15625 C 261.898438 145.71875 262.261719 144.234375 262.351562 142.75 C 262.546875 142.613281 262.726562 142.453125 262.882812 142.230469 C 267.664062 135.273438 287.847656 144.894531 291.277344 151.523438 C 287.53125 153.597656 281.441406 151.847656 277.320312 151.886719 C 272.984375 151.9375 268.863281 152.320312 264.710938 153.609375 C 264.0625 153.804688 263.699219 154.25 263.523438 154.75 C 251.730469 160.1875 240.75 167.015625 230.914062 175.523438 C 220.695312 184.367188 215.71875 193.207031 209.5625 204.550781 C 209.375 204.617188 209.1875 204.6875 209 204.835938 C 201.652344 210.570312 183.410156 201.796875 175.234375 199.492188 C 170.511719 198.15625 166.1875 196.757812 161.671875 196.511719 C 163.6875 195.027344 165.703125 193.550781 167.71875 192.066406 C 168.527344 192.164062 169.382812 191.832031 169.71875 191.023438 C 170.5625 190.9375 171.410156 190.859375 172.253906 190.808594 C 175.273438 200.003906 188.503906 200.308594 195.695312 195.617188 Z M 207.820312 144.511719 C 207.753906 144.660156 207.734375 144.796875 207.691406 144.933594 C 207.191406 145.199219 206.855469 145.640625 206.699219 146.144531 C 205.390625 147.511719 204.625 149.261719 204.851562 151.25 C 204.859375 151.296875 204.890625 151.328125 204.898438 151.375 C 203.691406 153.578125 202.304688 155.644531 200.632812 157.523438 C 200.550781 157.613281 200.53125 157.710938 200.464844 157.800781 C 197.039062 158.332031 195.023438 161.636719 194.1875 165.066406 C 194.179688 165.105469 194.1875 165.125 194.179688 165.167969 C 191.464844 167.398438 187.746094 168.292969 185.109375 170.792969 C 182.296875 173.449219 179.601562 175.859375 176.484375 177.894531 C 176.464844 177.882812 176.453125 177.875 176.425781 177.863281 C 170.621094 176.242188 165.929688 172.574219 162.902344 167.488281 C 178.863281 162.804688 194.296875 152.417969 208.53125 143.398438 C 208.304688 143.773438 208.039062 144.117188 207.820312 144.511719 Z M 222.957031 160.976562 C 222.632812 160.839844 222.328125 160.679688 221.996094 160.554688 C 218.199219 159.214844 213.871094 158.664062 209.589844 158.390625 C 210.910156 156.816406 212.257812 155.28125 213.703125 153.824219 C 214.007812 153.511719 214.136719 153.175781 214.195312 152.839844 C 217.65625 152.683594 221.109375 152.3125 224.550781 151.660156 C 224.699219 151.632812 224.789062 151.5625 224.914062 151.515625 C 226.304688 152.761719 227.710938 153.992188 229.144531 155.171875 C 227.207031 157.25 225.160156 159.1875 222.957031 160.976562 Z M 191.246094 193.710938 C 186.203125 195.695312 178.902344 195.460938 176.328125 190.738281 C 181.410156 190.859375 186.347656 191.8125 191.246094 193.710938 Z M 189.320312 179.675781 C 189.890625 178.984375 190.441406 178.257812 190.972656 177.480469 C 193.589844 173.695312 196.164062 170.675781 200.148438 168.371094 C 202.972656 170.417969 204.832031 173.664062 206.730469 176.800781 C 206.179688 177.472656 205.597656 178.148438 205.105469 178.867188 C 204.898438 178.777344 204.671875 178.699219 204.417969 178.691406 C 199.324219 178.394531 194.316406 178.90625 189.320312 179.675781 Z M 323.148438 142.691406 C 324.582031 146.351562 324.78125 149.820312 324.652344 153.726562 C 324.632812 154.601562 325.105469 155.152344 325.722656 155.398438 C 326.640625 157.710938 327.21875 160.148438 327.5625 162.65625 C 313.636719 175.011719 311.6875 194.78125 307.949219 211.996094 C 307.804688 212.632812 307.988281 213.164062 308.316406 213.578125 C 308.226562 213.65625 308.117188 213.714844 308.039062 213.816406 C 295.746094 216.902344 283.441406 220.039062 271.460938 224.242188 C 267.042969 225.785156 262.753906 227.535156 258.464844 229.226562 C 253.765625 221.210938 249.378906 213.222656 242.699219 206.625 C 236.53125 200.535156 229.714844 195.214844 222.507812 190.433594 C 225.585938 186.136719 229.085938 182.082031 233.589844 178.199219 C 243.398438 169.71875 254.375 163.023438 266.15625 157.652344 C 266.542969 157.472656 266.769531 157.21875 266.925781 156.933594 C 273.082031 155.28125 279.320312 155.554688 285.613281 156.292969 C 288.542969 156.636719 290.867188 156.207031 293.148438 154.828125 C 295.398438 158.242188 298.28125 161.152344 301.722656 163.425781 C 301.773438 163.464844 301.804688 163.515625 301.871094 163.542969 C 301.871094 163.542969 301.882812 163.554688 301.882812 163.554688 C 301.921875 163.574219 301.949219 163.601562 301.980469 163.621094 C 302.253906 163.800781 302.519531 163.878906 302.777344 163.90625 C 308.15625 166.128906 314.1875 164.980469 317.363281 159.617188 C 319.171875 156.558594 319.558594 152.921875 319.242188 149.4375 C 318.828125 144.796875 314.480469 136.101562 318.96875 132.460938 C 319.851562 134.144531 322.941406 142.160156 323.148438 142.691406 Z M 323.621094 124.375 C 325.378906 127.671875 325.695312 132.570312 324.476562 136.03125 C 324.40625 135.84375 324.328125 135.679688 324.257812 135.492188 C 324.238281 135.441406 324.21875 135.382812 324.199219 135.332031 C 324.277344 134.949219 324.277344 134.539062 324.070312 134.105469 C 323.246094 132.375 323.648438 129.824219 323.601562 127.945312 C 323.570312 126.746094 323.5 125.546875 323.621094 124.375 Z M 328.675781 183.558594 C 329.519531 190.828125 330.632812 198.078125 331.65625 205.328125 C 325.566406 209.449219 318.878906 212.015625 311.621094 212.871094 C 314.972656 197.398438 316.734375 179.371094 328.015625 167.476562 C 328.3125 172.90625 328.09375 178.464844 328.675781 183.558594 Z M 335.667969 205.472656 C 335.597656 205.40625 335.519531 205.386719 335.441406 205.328125 C 333.898438 194.203125 331.851562 183.039062 331.644531 171.785156 C 331.515625 164.851562 331.488281 158.929688 328.664062 152.566406 C 328.605469 152.429688 328.507812 152.351562 328.429688 152.242188 C 328.390625 147.972656 327.5625 144.394531 326.246094 140.65625 C 328.644531 137.597656 329.265625 134.054688 328.773438 130.148438 C 328.359375 126.785156 327.769531 122.792969 325.378906 120.207031 C 325.28125 119.578125 324.898438 119.007812 324.101562 118.78125 C 323.835938 118.703125 323.558594 118.652344 323.285156 118.582031 C 323.824219 117.050781 323.628906 115.425781 322.910156 114.070312 C 322.921875 113.921875 322.960938 113.785156 322.929688 113.625 C 322.113281 108.246094 313.253906 106.957031 308.972656 107.183594 C 307.746094 107.242188 307.144531 108.253906 307.164062 109.21875 C 305.640625 111.15625 305.128906 113.902344 304.578125 116.300781 C 304.132812 118.277344 303.839844 120.253906 303.839844 122.203125 C 302.738281 121.128906 301.539062 120.253906 300.171875 119.785156 C 298.144531 119.085938 296.394531 119.371094 294.859375 120.1875 C 290.679688 117.570312 285.554688 114.992188 280.714844 117.511719 C 275.175781 120.394531 276.09375 128.144531 270.347656 130.859375 C 269.945312 131.046875 269.707031 131.332031 269.570312 131.636719 C 269.285156 131.636719 268.992188 131.605469 268.707031 131.625 C 266.660156 124.121094 253.234375 122.617188 247.125 121.9375 C 245.679688 121.78125 244.242188 121.710938 242.828125 121.710938 C 238.449219 115.269531 232.410156 104.578125 223.617188 104.566406 C 219.625 104.558594 215.375 106.820312 211.992188 108.785156 C 204.898438 112.898438 199.105469 116.863281 191.179688 119.742188 C 190.816406 119.882812 190.570312 120.097656 190.363281 120.335938 C 186.015625 120.964844 182.042969 123.128906 178.785156 127.515625 C 178.421875 128.007812 178.363281 128.496094 178.5 128.921875 C 176.21875 130.140625 173.957031 131.359375 171.636719 132.480469 C 171.476562 132.558594 171.390625 132.660156 171.28125 132.757812 C 169.285156 132.292969 166.902344 132.953125 165.09375 133.898438 C 163.71875 134.617188 162.222656 135.539062 161.886719 137.183594 C 161.789062 137.636719 161.808594 138.078125 161.898438 138.5 C 160.648438 138.5 159.390625 138.597656 158.128906 138.933594 C 154.933594 139.789062 152.101562 141.578125 149.355469 143.351562 C 148.617188 143.832031 148.402344 144.570312 148.519531 145.25 C 148.019531 145.476562 147.535156 145.75 147.066406 146.035156 C 146.574219 145.976562 146.0625 146.113281 145.609375 146.566406 C 143.109375 149.085938 140.167969 150.894531 136.796875 151.957031 C 136.519531 152.035156 136.3125 152.164062 136.136719 152.3125 C 135.871094 152.269531 135.578125 152.269531 135.261719 152.378906 C 132.527344 153.234375 129.863281 156.066406 128.660156 158.851562 C 128.257812 159.253906 128.0625 159.804688 128.21875 160.414062 C 128.210938 160.503906 128.199219 160.59375 128.199219 160.679688 C 123.066406 165.292969 115.472656 165.472656 109.039062 167.46875 C 108.125 167.753906 107.742188 168.492188 107.730469 169.238281 C 90.125 177.363281 70.089844 184.1875 50.652344 183.410156 C 49.984375 182.792969 48.953125 182.605469 48.15625 183.472656 C 43.039062 189.019531 39.753906 195.746094 38.691406 203.230469 C 38.632812 203.671875 38.742188 204.058594 38.910156 204.390625 C 35.101562 209.339844 35.40625 215.367188 36.882812 221.347656 C 36.785156 221.988281 36.933594 222.65625 37.453125 223.121094 C 37.875 223.816406 38.625 224.042969 39.34375 223.90625 C 59.417969 230.625 79.867188 234.332031 100.984375 235.148438 C 100.835938 235.1875 100.699219 235.199219 100.550781 235.285156 C 97.609375 236.898438 96.5 239.683594 95.96875 242.878906 C 95.269531 247.148438 95.042969 251.554688 94.699219 255.894531 C 94.589844 256.21875 94.550781 256.550781 94.621094 256.894531 C 94.589844 257.199219 94.570312 257.515625 94.539062 257.832031 C 94.382812 259.53125 96.214844 260.003906 97.382812 259.304688 C 115.414062 270.15625 143.042969 268.394531 163 268.550781 C 163.382812 268.550781 163.6875 268.441406 163.941406 268.285156 C 190.285156 268.945312 216.082031 265.984375 241.585938 259.394531 C 242 259.808594 242.570312 260.054688 243.308594 259.867188 C 260.34375 255.441406 277.339844 250.816406 294.417969 246.597656 C 306.859375 243.519531 321.316406 244.511719 332.167969 236.988281 C 332.472656 236.78125 332.660156 236.515625 332.796875 236.242188 C 337.183594 232.914062 337.054688 227.792969 337.25 222.589844 C 337.4375 217.710938 339.621094 209.339844 335.667969 205.472656 " fill-opacity="1" fill-rule="nonzero"/></g><path fill="#ffffff" d="M 277.332031 145.167969 C 277.960938 143.066406 275.078125 142.070312 273.988281 143.597656 C 272.382812 142.425781 270.171875 144.824219 271.65625 146.535156 C 273.378906 148.523438 276.605469 147.550781 277.332031 145.167969 " fill-opacity="1" fill-rule="nonzero"/></svg>