<svg xmlns="http://www.w3.org/2000/svg" xmlns:xlink="http://www.w3.org/1999/xlink" width="500" zoomAndPan="magnify" viewBox="0 0 375 374.999991" height="500" preserveAspectRatio="xMidYMid meet" version="1.0"><defs><clipPath id="a9f59ea520"><path d="M 19.953125 19.964844 L 354.683594 19.964844 L 354.683594 354.695312 L 19.953125 354.695312 Z M 19.953125 19.964844 " clip-rule="nonzero"/></clipPath><clipPath id="b27ed2d443"><path d="M 187.320312 19.964844 C 94.886719 19.964844 19.953125 94.898438 19.953125 187.332031 C 19.953125 279.765625 94.886719 354.695312 187.320312 354.695312 C 279.75 354.695312 354.683594 279.765625 354.683594 187.332031 C 354.683594 94.898438 279.75 19.964844 187.320312 19.964844 Z M 187.320312 19.964844 " clip-rule="nonzero"/></clipPath><clipPath id="0772d08b28"><path d="M 76 105 L 298.929688 105 L 298.929688 270 L 76 270 Z M 76 105 " clip-rule="nonzero"/></clipPath></defs><g clip-path="url(#a9f59ea520)"><g clip-path="url(#b27ed2d443)"><path fill="#222222" d="M 19.953125 19.964844 L 354.683594 19.964844 L 354.683594 354.695312 L 19.953125 354.695312 Z M 19.953125 19.964844 " fill-opacity="1" fill-rule="nonzero"/></g></g><g clip-path="url(#0772d08b28)"><path fill="#ffffff" d="M 298.863281 254.367188 L 285.9375 193.515625 L 263.679688 126.835938 L 263.679688 108.347656 C 263.679688 107.613281 263.359375 106.914062 262.804688 106.4375 C 262.238281 105.957031 261.496094 105.742188 260.773438 105.867188 C 229.492188 110.820312 200.871094 113.332031 175.691406 113.332031 C 175.691406 113.332031 175.679688 113.332031 175.679688 113.332031 C 133.257812 113.332031 115.109375 106.09375 114.933594 106.023438 C 114.152344 105.703125 113.265625 105.792969 112.570312 106.261719 C 111.871094 106.726562 111.453125 107.511719 111.453125 108.347656 L 111.453125 126.835938 L 89.128906 193.789062 L 76.285156 254.367188 C 76.007812 255.675781 76.800781 256.972656 78.089844 257.316406 L 120.5 268.71875 C 120.703125 268.78125 120.910156 268.804688 121.121094 268.8125 L 175.789062 269.429688 C 177 269.382812 178.050781 268.59375 178.285156 267.410156 L 187.574219 221.363281 L 196.859375 267.410156 C 197.09375 268.585938 198.128906 269.429688 199.324219 269.429688 C 199.335938 269.429688 199.355469 269.429688 199.363281 269.429688 L 253.714844 268.492188 C 253.914062 268.488281 254.109375 268.464844 254.304688 268.414062 L 297.035156 257.324219 C 298.332031 256.984375 299.140625 255.679688 298.863281 254.367188 Z M 253.328125 263.460938 L 201.378906 264.355469 L 190.183594 208.859375 C 189.941406 207.683594 188.621094 206.839844 187.421875 206.839844 C 186.222656 206.839844 185.191406 207.683594 184.957031 208.859375 L 173.761719 264.367188 L 121.496094 263.777344 L 81.699219 253.078125 L 93.972656 195.109375 L 115.355469 131.03125 C 121.171875 134.152344 136.171875 140.226562 165.019531 140.347656 C 165.019531 140.347656 165.023438 140.347656 165.023438 140.347656 C 166.410156 140.347656 167.535156 139.226562 167.542969 137.84375 C 167.546875 136.453125 166.425781 135.320312 165.035156 135.316406 C 134.324219 135.191406 120.09375 128.046875 116.480469 125.878906 L 116.480469 111.863281 C 123.652344 114.027344 142.214844 118.363281 175.675781 118.363281 C 175.675781 118.363281 175.675781 118.363281 175.679688 118.363281 C 200.335938 118.363281 228.234375 115.984375 258.636719 111.292969 L 258.636719 124.886719 C 232.753906 132.617188 206.558594 133.578125 206.304688 133.589844 C 204.910156 133.632812 203.828125 134.796875 203.871094 136.1875 C 203.921875 137.550781 205.039062 138.617188 206.386719 138.617188 C 206.417969 138.617188 206.445312 138.617188 206.476562 138.617188 C 206.738281 138.613281 233.097656 137.640625 259.398438 129.910156 L 281.089844 194.835938 L 293.4375 253.050781 Z M 253.328125 263.460938 " fill-opacity="1" fill-rule="nonzero"/></g><path fill="#ffffff" d="M 200.277344 122.601562 C 196.5625 120.34375 193.039062 119.855469 189.816406 121.148438 C 186.878906 122.332031 184.84375 124.832031 183.484375 127.175781 C 182.15625 125.183594 180.53125 123.484375 178.449219 122.707031 C 176.40625 121.949219 173.132812 121.738281 169.152344 125.007812 C 168.589844 125.472656 168.25 126.160156 168.230469 126.890625 C 168.121094 131.351562 170.375 139.035156 178.328125 142.402344 C 177.359375 143.515625 176.460938 144.953125 175.734375 146.910156 C 171.957031 157.117188 174.582031 177.261719 177.371094 180.058594 C 177.890625 180.582031 178.613281 180.859375 179.320312 180.859375 C 179.949219 180.859375 180.5625 180.644531 181.023438 180.179688 C 182.011719 179.199219 182.105469 177.722656 181.125 176.738281 C 179.664062 174.21875 176.929688 155.105469 181.117188 147.160156 C 182.433594 144.652344 183.933594 144.257812 184.945312 144.183594 C 185.15625 144.167969 185.339844 144.109375 185.550781 144.089844 C 187.785156 144.371094 189.214844 156.777344 189.746094 161.46875 C 190.707031 169.820312 191.359375 174.652344 193.488281 176.878906 C 193.980469 177.386719 194.617188 177.636719 195.269531 177.636719 C 195.886719 177.636719 196.515625 177.40625 197.007812 176.949219 C 198.011719 176.007812 198.050781 174.410156 197.125 173.390625 C 196.054688 172.222656 195.269531 165.402344 194.746094 160.894531 C 193.933594 153.796875 193.140625 146.976562 190.960938 142.890625 C 193.988281 141.828125 196.496094 140.199219 198.304688 137.863281 C 202.777344 132.070312 201.5 124.621094 201.4375 124.304688 C 201.316406 123.597656 200.894531 122.976562 200.277344 122.601562 Z M 173.320312 128.179688 C 175.265625 126.90625 176.308594 127.292969 176.691406 127.429688 C 179.640625 128.519531 181.839844 134.703125 182.765625 138.648438 C 175.046875 136.957031 173.585938 130.847656 173.320312 128.179688 Z M 194.300781 134.816406 C 192.859375 136.675781 190.703125 137.9375 187.90625 138.628906 C 187.695312 137.546875 187.191406 135.425781 186.324219 132.980469 C 187.027344 130.882812 188.859375 126.949219 191.710938 125.8125 C 193.128906 125.234375 194.746094 125.402344 196.601562 126.320312 C 196.699219 128.160156 196.570312 131.910156 194.300781 134.816406 Z M 194.300781 134.816406 " fill-opacity="1" fill-rule="nonzero"/></svg>