<svg xmlns="http://www.w3.org/2000/svg" xmlns:xlink="http://www.w3.org/1999/xlink" width="500" zoomAndPan="magnify" viewBox="0 0 375 374.999991" height="500" preserveAspectRatio="xMidYMid meet" version="1.0"><defs><clipPath id="4c35a24c8e"><path d="M 19.953125 19.964844 L 354.683594 19.964844 L 354.683594 354.695312 L 19.953125 354.695312 Z M 19.953125 19.964844 " clip-rule="nonzero"/></clipPath><clipPath id="93a2ca1519"><path d="M 187.320312 19.964844 C 94.886719 19.964844 19.953125 94.898438 19.953125 187.332031 C 19.953125 279.765625 94.886719 354.695312 187.320312 354.695312 C 279.75 354.695312 354.683594 279.765625 354.683594 187.332031 C 354.683594 94.898438 279.75 19.964844 187.320312 19.964844 Z M 187.320312 19.964844 " clip-rule="nonzero"/></clipPath><clipPath id="02633a87e1"><path d="M 57 61.675781 L 317.867188 61.675781 L 317.867188 312.957031 L 57 312.957031 Z M 57 61.675781 " clip-rule="nonzero"/></clipPath></defs><g clip-path="url(#4c35a24c8e)"><g clip-path="url(#93a2ca1519)"><path fill="#222222" d="M 19.953125 19.964844 L 354.683594 19.964844 L 354.683594 354.695312 L 19.953125 354.695312 Z M 19.953125 19.964844 " fill-opacity="1" fill-rule="nonzero"/></g></g><g clip-path="url(#02633a87e1)"><path fill="#ffffff" d="M 152.191406 234.105469 C 151.027344 234.105469 150.082031 235.050781 150.082031 236.21875 L 150.082031 277.445312 C 150.082031 278.609375 151.027344 279.554688 152.191406 279.554688 L 222.429688 279.554688 C 223.597656 279.554688 224.539062 278.609375 224.539062 277.445312 L 224.539062 236.21875 C 224.539062 235.050781 223.597656 234.105469 222.429688 234.105469 Z M 220.320312 275.332031 L 154.300781 275.332031 L 154.300781 238.328125 L 220.320312 238.328125 Z M 317.359375 260.523438 C 298.53125 205.050781 283.625 161.824219 275.617188 138.601562 C 273.789062 133.304688 272.34375 129.117188 271.324219 126.140625 C 270.441406 123.570312 268.375 117.554688 262.773438 112.089844 C 257.921875 107.351562 249.074219 105.144531 240.523438 103.015625 C 238.417969 102.488281 236.242188 101.949219 234.21875 101.386719 C 233.09375 101.074219 231.933594 101.734375 231.625 102.855469 C 231.3125 103.980469 231.96875 105.144531 233.09375 105.453125 C 235.167969 106.027344 237.371094 106.578125 239.5 107.109375 C 247.507812 109.105469 255.789062 111.167969 259.828125 115.109375 C 264.707031 119.875 266.546875 125.226562 267.332031 127.519531 C 268.355469 130.488281 269.796875 134.675781 271.625 139.980469 C 279.554688 162.964844 294.242188 205.554688 312.796875 260.21875 C 308.21875 262.742188 303.429688 264.976562 298.539062 266.867188 C 293.773438 268.714844 288.839844 270.265625 283.851562 271.488281 L 255.347656 214.453125 C 255.285156 214.324219 255.210938 214.207031 255.125 214.101562 L 256.914062 179.960938 C 256.972656 178.796875 256.082031 177.804688 254.917969 177.742188 C 253.765625 177.695312 252.761719 178.578125 252.699219 179.742188 L 247.035156 287.992188 C 246.9375 289.816406 245.789062 291.449219 244.105469 292.15625 C 244.089844 292.160156 244.078125 292.171875 244.0625 292.179688 C 244.03125 292.191406 244 292.203125 243.972656 292.214844 C 243.429688 292.488281 242.851562 292.625 242.257812 292.625 L 132.367188 292.625 C 131.769531 292.625 131.191406 292.488281 130.648438 292.214844 C 130.621094 292.199219 130.589844 292.191406 130.558594 292.175781 C 130.542969 292.171875 130.53125 292.160156 130.519531 292.15625 C 128.832031 291.449219 127.683594 289.816406 127.589844 287.992188 L 121.921875 179.742188 C 121.863281 178.578125 120.859375 177.683594 119.707031 177.742188 C 118.542969 177.804688 117.648438 178.796875 117.710938 179.960938 L 119.496094 214.101562 C 119.414062 214.207031 119.335938 214.324219 119.273438 214.453125 L 90.773438 271.488281 C 85.785156 270.265625 80.847656 268.714844 76.082031 266.867188 C 71.191406 264.976562 66.40625 262.742188 61.824219 260.21875 C 80.363281 205.609375 95.046875 163.03125 102.972656 140.050781 C 104.8125 134.714844 106.265625 130.5 107.292969 127.511719 C 108.078125 125.226562 109.914062 119.875 114.796875 115.109375 C 118.832031 111.167969 127.113281 109.105469 135.121094 107.109375 C 137.25 106.578125 139.453125 106.03125 141.527344 105.453125 C 142.652344 105.140625 143.308594 103.980469 143 102.855469 C 142.6875 101.734375 141.523438 101.074219 140.402344 101.386719 C 138.378906 101.949219 136.203125 102.488281 134.101562 103.015625 C 125.546875 105.144531 116.703125 107.351562 111.847656 112.089844 C 106.25 117.554688 104.183594 123.570312 103.296875 126.148438 C 102.273438 129.128906 100.820312 133.339844 98.980469 138.671875 C 90.976562 161.890625 76.070312 205.109375 57.265625 260.523438 C 56.941406 261.480469 57.339844 262.535156 58.21875 263.035156 C 63.433594 266.011719 68.929688 268.625 74.558594 270.804688 C 80.027344 272.921875 85.707031 274.664062 91.4375 275.984375 C 91.597656 276.019531 91.757812 276.035156 91.914062 276.035156 C 92.699219 276.035156 93.4375 275.597656 93.800781 274.871094 L 119.9375 222.5625 L 123.375 288.210938 C 123.527344 291.152344 125.140625 293.828125 127.59375 295.371094 L 127.59375 310.894531 C 127.59375 312.0625 128.539062 313.003906 129.703125 313.003906 L 244.917969 313.003906 C 246.082031 313.003906 247.027344 312.0625 247.027344 310.894531 L 247.027344 295.371094 C 249.480469 293.828125 251.09375 291.152344 251.25 288.210938 L 254.683594 222.5625 L 280.824219 274.871094 C 281.1875 275.597656 281.925781 276.035156 282.710938 276.035156 C 282.867188 276.035156 283.027344 276.019531 283.183594 275.984375 C 288.917969 274.664062 294.597656 272.921875 300.066406 270.804688 C 305.691406 268.625 311.191406 266.011719 316.40625 263.035156 C 317.28125 262.535156 317.683594 261.480469 317.359375 260.523438 Z M 242.808594 308.785156 L 131.8125 308.785156 L 131.8125 296.828125 C 131.996094 296.839844 132.179688 296.847656 132.367188 296.847656 L 242.257812 296.847656 C 242.441406 296.847656 242.625 296.839844 242.808594 296.828125 Z M 183.652344 128.316406 C 179.210938 132.816406 175.273438 137.753906 171.921875 143.03125 C 170.421875 145.390625 169.019531 147.851562 167.757812 150.347656 C 167.230469 151.386719 167.644531 152.65625 168.683594 153.183594 C 168.988281 153.339844 169.316406 153.414062 169.636719 153.414062 C 170.40625 153.414062 171.148438 152.992188 171.519531 152.257812 C 172.722656 149.882812 174.058594 147.539062 175.484375 145.292969 C 178.835938 140.011719 182.8125 135.085938 187.3125 130.628906 C 191.808594 135.089844 195.785156 140.011719 199.140625 145.292969 C 200.5625 147.539062 201.898438 149.882812 203.101562 152.257812 C 203.476562 152.992188 204.21875 153.414062 204.988281 153.414062 C 205.308594 153.414062 205.632812 153.339844 205.941406 153.183594 C 206.980469 152.65625 207.394531 151.386719 206.867188 150.347656 C 205.601562 147.851562 204.199219 145.390625 202.703125 143.03125 C 199.386719 137.808594 195.488281 132.917969 191.105469 128.457031 C 204.878906 122.339844 221.71875 112.152344 229.195312 96.941406 C 230.519531 94.242188 231.15625 91.640625 231.195312 88.757812 C 231.265625 83.375 229.003906 78.222656 224.660156 73.847656 C 220.144531 69.300781 209.28125 61.679688 187.171875 61.835938 C 165.066406 61.976562 154.292969 69.71875 149.835938 74.320312 C 145.546875 78.75 143.351562 83.933594 143.492188 89.3125 C 143.566406 92.195312 144.234375 94.785156 145.59375 97.46875 C 153.179688 112.429688 169.878906 122.351562 183.652344 128.316406 Z M 187.5 124.757812 C 180.722656 115.117188 175.320312 106.539062 171.804688 99.828125 C 171.695312 99.617188 171.121094 98.453125 170.824219 96.609375 C 170.242188 92.941406 171.382812 89.105469 173.949219 86.078125 C 177.050781 82.421875 181.761719 80.390625 187.222656 80.355469 C 187.269531 80.355469 187.3125 80.355469 187.359375 80.355469 C 192.761719 80.355469 197.445312 82.324219 200.566406 85.910156 C 203.167969 88.902344 204.355469 92.726562 203.820312 96.398438 C 203.550781 98.25 202.988281 99.417969 202.878906 99.632812 C 199.449219 106.386719 194.15625 115.03125 187.5 124.757812 Z M 152.867188 77.253906 C 159.765625 70.128906 171.957031 66.152344 187.195312 66.058594 C 187.382812 66.054688 187.570312 66.054688 187.757812 66.054688 C 202.734375 66.054688 214.761719 69.871094 221.667969 76.820312 C 225.195312 80.371094 227.027344 84.480469 226.972656 88.703125 C 226.945312 90.964844 226.460938 92.933594 225.40625 95.078125 C 221.765625 102.484375 213.398438 112.882812 194.210938 122.347656 C 199.464844 114.414062 203.710938 107.316406 206.644531 101.542969 C 206.933594 100.972656 207.648438 99.378906 207.996094 97.007812 C 208.710938 92.117188 207.160156 87.0625 203.75 83.140625 C 199.78125 78.582031 193.917969 76.101562 187.195312 76.132812 C 180.484375 76.175781 174.640625 78.738281 170.730469 83.347656 C 167.367188 87.3125 165.882812 92.386719 166.660156 97.269531 C 167.035156 99.636719 167.769531 101.21875 168.066406 101.789062 C 171.558594 108.453125 176.3125 115.890625 180.695312 122.335938 C 161.53125 113.136719 153.078125 102.894531 149.355469 95.558594 C 148.277344 93.425781 147.769531 91.46875 147.710938 89.203125 C 147.601562 84.984375 149.382812 80.851562 152.867188 77.253906 Z M 152.867188 77.253906 " fill-opacity="1" fill-rule="nonzero"/><path fill="#ffffff" d="M 152.191406 234.105469 C 151.027344 234.105469 150.082031 235.050781 150.082031 236.21875 L 150.082031 277.445312 C 150.082031 278.609375 151.027344 279.554688 152.191406 279.554688 L 222.429688 279.554688 C 223.597656 279.554688 224.539062 278.609375 224.539062 277.445312 L 224.539062 236.21875 C 224.539062 235.050781 223.597656 234.105469 222.429688 234.105469 Z M 220.320312 275.332031 L 154.300781 275.332031 L 154.300781 238.328125 L 220.320312 238.328125 Z M 317.359375 260.523438 C 298.53125 205.050781 283.625 161.824219 275.617188 138.601562 C 273.789062 133.304688 272.34375 129.117188 271.324219 126.140625 C 270.441406 123.570312 268.375 117.554688 262.773438 112.089844 C 257.921875 107.351562 249.074219 105.144531 240.523438 103.015625 C 238.417969 102.488281 236.242188 101.949219 234.21875 101.386719 C 233.09375 101.074219 231.933594 101.734375 231.625 102.855469 C 231.3125 103.980469 231.96875 105.144531 233.09375 105.453125 C 235.167969 106.027344 237.371094 106.578125 239.5 107.109375 C 247.507812 109.105469 255.789062 111.167969 259.828125 115.109375 C 264.707031 119.875 266.546875 125.226562 267.332031 127.519531 C 268.355469 130.488281 269.796875 134.675781 271.625 139.980469 C 279.554688 162.964844 294.242188 205.554688 312.796875 260.21875 C 308.21875 262.742188 303.429688 264.976562 298.539062 266.867188 C 293.773438 268.714844 288.839844 270.265625 283.851562 271.488281 L 255.347656 214.453125 C 255.285156 214.324219 255.210938 214.207031 255.125 214.101562 L 256.914062 179.960938 C 256.972656 178.796875 256.082031 177.804688 254.917969 177.742188 C 253.765625 177.695312 252.761719 178.578125 252.699219 179.742188 L 247.035156 287.992188 C 246.9375 289.816406 245.789062 291.449219 244.105469 292.15625 C 244.089844 292.160156 244.078125 292.171875 244.0625 292.179688 C 244.03125 292.191406 244 292.203125 243.972656 292.214844 C 243.429688 292.488281 242.851562 292.625 242.257812 292.625 L 132.367188 292.625 C 131.769531 292.625 131.191406 292.488281 130.648438 292.214844 C 130.621094 292.199219 130.589844 292.191406 130.558594 292.175781 C 130.542969 292.171875 130.53125 292.160156 130.519531 292.15625 C 128.832031 291.449219 127.683594 289.816406 127.589844 287.992188 L 121.921875 179.742188 C 121.863281 178.578125 120.859375 177.683594 119.707031 177.742188 C 118.542969 177.804688 117.648438 178.796875 117.710938 179.960938 L 119.496094 214.101562 C 119.414062 214.207031 119.335938 214.324219 119.273438 214.453125 L 90.773438 271.488281 C 85.785156 270.265625 80.847656 268.714844 76.082031 266.867188 C 71.191406 264.976562 66.40625 262.742188 61.824219 260.21875 C 80.363281 205.609375 95.046875 163.03125 102.972656 140.050781 C 104.8125 134.714844 106.265625 130.5 107.292969 127.511719 C 108.078125 125.226562 109.914062 119.875 114.796875 115.109375 C 118.832031 111.167969 127.113281 109.105469 135.121094 107.109375 C 137.25 106.578125 139.453125 106.03125 141.527344 105.453125 C 142.652344 105.140625 143.308594 103.980469 143 102.855469 C 142.6875 101.734375 141.523438 101.074219 140.402344 101.386719 C 138.378906 101.949219 136.203125 102.488281 134.101562 103.015625 C 125.546875 105.144531 116.703125 107.351562 111.847656 112.089844 C 106.25 117.554688 104.183594 123.570312 103.296875 126.148438 C 102.273438 129.128906 100.820312 133.339844 98.980469 138.671875 C 90.976562 161.890625 76.070312 205.109375 57.265625 260.523438 C 56.941406 261.480469 57.339844 262.535156 58.21875 263.035156 C 63.433594 266.011719 68.929688 268.625 74.558594 270.804688 C 80.027344 272.921875 85.707031 274.664062 91.4375 275.984375 C 91.597656 276.019531 91.757812 276.035156 91.914062 276.035156 C 92.699219 276.035156 93.4375 275.597656 93.800781 274.871094 L 119.9375 222.5625 L 123.375 288.210938 C 123.527344 291.152344 125.140625 293.828125 127.59375 295.371094 L 127.59375 310.894531 C 127.59375 312.0625 128.539062 313.003906 129.703125 313.003906 L 244.917969 313.003906 C 246.082031 313.003906 247.027344 312.0625 247.027344 310.894531 L 247.027344 295.371094 C 249.480469 293.828125 251.09375 291.152344 251.25 288.210938 L 254.683594 222.5625 L 280.824219 274.871094 C 281.1875 275.597656 281.925781 276.035156 282.710938 276.035156 C 282.867188 276.035156 283.027344 276.019531 283.183594 275.984375 C 288.917969 274.664062 294.597656 272.921875 300.066406 270.804688 C 305.691406 268.625 311.191406 266.011719 316.40625 263.035156 C 317.28125 262.535156 317.683594 261.480469 317.359375 260.523438 Z M 242.808594 308.785156 L 131.8125 308.785156 L 131.8125 296.828125 C 131.996094 296.839844 132.179688 296.847656 132.367188 296.847656 L 242.257812 296.847656 C 242.441406 296.847656 242.625 296.839844 242.808594 296.828125 Z M 183.652344 128.316406 C 179.210938 132.816406 175.273438 137.753906 171.921875 143.03125 C 170.421875 145.390625 169.019531 147.851562 167.757812 150.347656 C 167.230469 151.386719 167.644531 152.65625 168.683594 153.183594 C 168.988281 153.339844 169.316406 153.414062 169.636719 153.414062 C 170.40625 153.414062 171.148438 152.992188 171.519531 152.257812 C 172.722656 149.882812 174.058594 147.539062 175.484375 145.292969 C 178.835938 140.011719 182.8125 135.085938 187.3125 130.628906 C 191.808594 135.089844 195.785156 140.011719 199.140625 145.292969 C 200.5625 147.539062 201.898438 149.882812 203.101562 152.257812 C 203.476562 152.992188 204.21875 153.414062 204.988281 153.414062 C 205.308594 153.414062 205.632812 153.339844 205.941406 153.183594 C 206.980469 152.65625 207.394531 151.386719 206.867188 150.347656 C 205.601562 147.851562 204.199219 145.390625 202.703125 143.03125 C 199.386719 137.808594 195.488281 132.917969 191.105469 128.457031 C 204.878906 122.339844 221.71875 112.152344 229.195312 96.941406 C 230.519531 94.242188 231.15625 91.640625 231.195312 88.757812 C 231.265625 83.375 229.003906 78.222656 224.660156 73.847656 C 220.144531 69.300781 209.28125 61.679688 187.171875 61.835938 C 165.066406 61.976562 154.292969 69.71875 149.835938 74.320312 C 145.546875 78.75 143.351562 83.933594 143.492188 89.3125 C 143.566406 92.195312 144.234375 94.785156 145.59375 97.46875 C 153.179688 112.429688 169.878906 122.351562 183.652344 128.316406 Z M 187.5 124.757812 C 180.722656 115.117188 175.320312 106.539062 171.804688 99.828125 C 171.695312 99.617188 171.121094 98.453125 170.824219 96.609375 C 170.242188 92.941406 171.382812 89.105469 173.949219 86.078125 C 177.050781 82.421875 181.761719 80.390625 187.222656 80.355469 C 187.269531 80.355469 187.3125 80.355469 187.359375 80.355469 C 192.761719 80.355469 197.445312 82.324219 200.566406 85.910156 C 203.167969 88.902344 204.355469 92.726562 203.820312 96.398438 C 203.550781 98.25 202.988281 99.417969 202.878906 99.632812 C 199.449219 106.386719 194.15625 115.03125 187.5 124.757812 Z M 152.867188 77.253906 C 159.765625 70.128906 171.957031 66.152344 187.195312 66.058594 C 187.382812 66.054688 187.570312 66.054688 187.757812 66.054688 C 202.734375 66.054688 214.761719 69.871094 221.667969 76.820312 C 225.195312 80.371094 227.027344 84.480469 226.972656 88.703125 C 226.945312 90.964844 226.460938 92.933594 225.40625 95.078125 C 221.765625 102.484375 213.398438 112.882812 194.210938 122.347656 C 199.464844 114.414062 203.710938 107.316406 206.644531 101.542969 C 206.933594 100.972656 207.648438 99.378906 207.996094 97.007812 C 208.710938 92.117188 207.160156 87.0625 203.75 83.140625 C 199.78125 78.582031 193.917969 76.101562 187.195312 76.132812 C 180.484375 76.175781 174.640625 78.738281 170.730469 83.347656 C 167.367188 87.3125 165.882812 92.386719 166.660156 97.269531 C 167.035156 99.636719 167.769531 101.21875 168.066406 101.789062 C 171.558594 108.453125 176.3125 115.890625 180.695312 122.335938 C 161.53125 113.136719 153.078125 102.894531 149.355469 95.558594 C 148.277344 93.425781 147.769531 91.46875 147.710938 89.203125 C 147.601562 84.984375 149.382812 80.851562 152.867188 77.253906 Z M 152.867188 77.253906 " fill-opacity="1" fill-rule="nonzero"/></g></svg>