<svg xmlns="http://www.w3.org/2000/svg" xmlns:xlink="http://www.w3.org/1999/xlink" width="500" zoomAndPan="magnify" viewBox="0 0 375 374.999991" height="500" preserveAspectRatio="xMidYMid meet" version="1.0"><defs><clipPath id="3c2cd0473e"><path d="M 19.953125 19.964844 L 354.683594 19.964844 L 354.683594 354.695312 L 19.953125 354.695312 Z M 19.953125 19.964844 " clip-rule="nonzero"/></clipPath><clipPath id="b5fed4cc22"><path d="M 187.320312 19.964844 C 94.886719 19.964844 19.953125 94.898438 19.953125 187.332031 C 19.953125 279.765625 94.886719 354.695312 187.320312 354.695312 C 279.75 354.695312 354.683594 279.765625 354.683594 187.332031 C 354.683594 94.898438 279.75 19.964844 187.320312 19.964844 Z M 187.320312 19.964844 " clip-rule="nonzero"/></clipPath><clipPath id="261bf074b5"><path d="M 59.898438 48.390625 L 314.804688 48.390625 L 314.804688 326.25 L 59.898438 326.25 Z M 59.898438 48.390625 " clip-rule="nonzero"/></clipPath></defs><g clip-path="url(#3c2cd0473e)"><g clip-path="url(#b5fed4cc22)"><path fill="#222222" d="M 19.953125 19.964844 L 354.683594 19.964844 L 354.683594 354.695312 L 19.953125 354.695312 Z M 19.953125 19.964844 " fill-opacity="1" fill-rule="nonzero"/></g></g><path fill="#ffffff" d="M 157.535156 51.675781 C 156.402344 51.671875 151.683594 54.15625 149.460938 55.933594 C 148.199219 56.9375 135.023438 61.964844 125.964844 64.890625 C 115.722656 68.203125 112.785156 69.011719 107.296875 70.054688 C 98.699219 71.683594 93.800781 75.453125 89.835938 83.484375 C 88.714844 85.761719 87.382812 89.402344 86.878906 91.582031 C 86.378906 93.761719 85.730469 95.792969 85.441406 96.089844 C 85.148438 96.386719 84.914062 97.675781 84.914062 98.96875 C 84.914062 101.226562 84.675781 101.710938 81.238281 106.367188 C 80.753906 107.023438 80.15625 109.246094 79.90625 111.3125 C 79.578125 114.039062 79.101562 115.457031 78.152344 116.472656 C 77.046875 117.644531 76.75 118.804688 76.316406 123.695312 C 75.757812 130.007812 75.492188 131.09375 71.625 143.390625 C 68.648438 152.859375 66.210938 162.191406 64.585938 170.28125 C 63.34375 176.457031 62.316406 185.578125 62.699219 187.074219 C 62.832031 187.589844 64 188.402344 65.296875 188.875 L 70.816406 190.882812 C 80.566406 194.425781 83.691406 195.027344 93.570312 195.257812 L 103.074219 195.476562 L 105.058594 197.460938 C 106.792969 199.191406 107.390625 199.445312 109.847656 199.445312 C 111.394531 199.445312 112.664062 199.628906 112.664062 199.863281 C 112.664062 201.007812 109.636719 212.324219 109 213.578125 C 107.847656 215.839844 107.433594 223.023438 108.191406 227.46875 C 109.207031 233.429688 109.078125 235.460938 107.308594 241.328125 C 105.429688 247.542969 105.613281 249.59375 108.660156 256.539062 C 110.691406 261.164062 110.8125 263.445312 109.261719 267.382812 C 107.96875 270.664062 107.808594 273.695312 108.835938 275.492188 C 109.316406 276.335938 109.648438 281.136719 109.882812 290.59375 C 110.230469 304.613281 111.246094 312.566406 112.894531 314.261719 C 113.441406 314.824219 114.382812 314.878906 116.953125 314.46875 C 120.730469 313.867188 133.386719 314.519531 137.847656 315.550781 C 139.40625 315.910156 143.746094 317.058594 147.484375 318.09375 C 154.292969 319.976562 164.179688 322.066406 168.425781 322.511719 C 169.671875 322.640625 176.175781 322.679688 182.871094 322.597656 C 192.734375 322.476562 196.167969 322.207031 200.984375 321.210938 C 211.054688 319.132812 216.09375 317.53125 227.066406 312.910156 C 239.136719 307.824219 247.976562 305.128906 254.933594 304.417969 C 257.78125 304.128906 258.917969 303.761719 259.320312 303.011719 C 260.042969 301.664062 260.015625 289.546875 259.277344 283.980469 C 258.953125 281.546875 258.15625 277.988281 257.5 276.082031 L 256.308594 272.621094 L 258.394531 267.753906 C 262.417969 258.382812 263.007812 250.980469 260.0625 246.640625 C 258.964844 245.023438 258.71875 244.136719 259.003906 242.800781 C 262.34375 227.257812 262.871094 214.214844 260.640625 202.335938 L 260.28125 200.425781 L 264.175781 200.863281 C 271.214844 201.660156 274.214844 200.859375 277.621094 197.273438 C 278.84375 195.984375 279.953125 195.464844 282.148438 195.167969 C 289.070312 194.230469 298.171875 191.867188 305.445312 189.109375 C 312.207031 186.550781 312.082031 186.761719 310.269531 180.773438 C 309.652344 178.742188 308.359375 174.269531 307.398438 170.84375 C 305.082031 162.582031 301.742188 151.808594 298.277344 141.449219 C 295.742188 133.863281 295.488281 132.660156 295.820312 129.78125 C 296.296875 125.699219 295.429688 122.464844 293.367188 120.628906 C 291.878906 119.300781 291.71875 118.785156 291.371094 113.882812 C 291.011719 108.867188 288.816406 98.636719 287.605469 96.371094 C 287.300781 95.800781 287.046875 94.695312 287.046875 93.914062 C 287.046875 93.132812 286.363281 90.660156 285.53125 88.414062 C 283.242188 82.234375 278.917969 77.886719 271.511719 74.308594 C 268.375 72.792969 262.367188 70.378906 258.164062 68.9375 C 235.332031 61.109375 230.761719 59.242188 225.035156 55.441406 C 222.359375 53.664062 221.542969 53.371094 220.574219 53.835938 C 215.46875 56.285156 200.820312 58.460938 189.417969 58.460938 C 178 58.460938 169.996094 56.886719 161.636719 52.996094 C 160.082031 52.269531 158.230469 51.679688 157.535156 51.675781 Z M 156.769531 53.9375 C 157.097656 53.9375 157.875 54.929688 158.496094 56.140625 C 160.535156 60.140625 166.5625 67.589844 170.160156 70.554688 C 177.203125 76.367188 185.429688 79.121094 191.753906 77.777344 C 198.585938 76.328125 204.527344 73.300781 210.511719 68.21875 C 213.472656 65.707031 219.0625 59.507812 220.855469 56.761719 L 221.773438 55.375 L 224.121094 56.925781 C 225.410156 57.78125 226.464844 58.738281 226.464844 59.054688 C 226.464844 60.402344 222.914062 66.488281 219.984375 70.164062 C 213.984375 77.695312 206.152344 82.273438 195.890625 84.25 C 183.445312 86.648438 171.886719 82.984375 162 73.5 C 156.695312 68.417969 151.164062 60.339844 151.164062 57.691406 C 151.164062 56.894531 155.582031 53.9375 156.769531 53.9375 Z M 230.109375 60.722656 C 230.195312 60.722656 232.023438 61.453125 234.167969 62.339844 C 236.3125 63.222656 239.601562 64.46875 241.46875 65.121094 L 255.554688 70.007812 C 268.140625 74.375 274.480469 77.324219 278.035156 80.453125 C 280.78125 82.871094 283.695312 87.761719 284.746094 91.714844 C 285.464844 94.414062 285.246094 95.003906 281.175781 101.457031 L 278.886719 105.089844 L 278.101562 103.148438 C 276.875 100.121094 275.789062 99.230469 273.363281 99.230469 C 271.628906 99.230469 270.742188 99.65625 268.933594 101.359375 C 266.332031 103.8125 265.796875 105.476562 263.839844 117.34375 C 263.144531 121.550781 262.476562 125.09375 262.355469 125.222656 C 262.234375 125.351562 262.136719 121.96875 262.136719 117.695312 C 262.136719 104.316406 259.824219 91.867188 257.34375 91.867188 C 255.929688 91.867188 255.25 103.304688 256.046875 113.667969 C 256.378906 118 256.746094 122.476562 257.3125 129.238281 C 258.664062 145.332031 258.148438 161.667969 255.863281 175.089844 C 254.097656 185.457031 253.648438 187.03125 244 216.085938 C 239.648438 229.199219 235.832031 240.710938 235.523438 241.664062 C 234.839844 243.765625 234.777344 246.433594 235.414062 246.433594 C 236.578125 246.433594 239.707031 242.121094 247.328125 230.011719 L 248.574219 228.035156 L 248.191406 229.726562 C 247.566406 232.453125 244.945312 239.789062 241.011719 249.828125 C 236.789062 260.59375 234.375 265.871094 231.734375 270.078125 C 229.667969 273.371094 229.421875 274.609375 230.730469 275.109375 C 232.269531 275.699219 233.875 273.5 237.8125 265.398438 C 242.28125 256.21875 245.253906 248.71875 251.628906 230.578125 C 252.667969 227.621094 253.699219 224.761719 253.917969 224.21875 C 254.402344 223.027344 255.339844 223.449219 255.335938 224.859375 C 255.335938 225.414062 256.144531 227.476562 257.128906 229.445312 C 259.066406 233.328125 259.066406 233.433594 257.0625 243.324219 C 256.0625 248.242188 244.414062 270.003906 235.140625 284.285156 C 231.988281 289.140625 231.570312 290.878906 233.546875 290.878906 C 234.332031 290.878906 235.644531 289.417969 237.867188 286.066406 C 242.457031 279.144531 250.304688 265.550781 254.921875 256.527344 C 257.113281 252.246094 259.105469 248.863281 259.34375 249.007812 C 260.226562 249.554688 260.503906 253.855469 259.867188 257.027344 C 258.53125 263.667969 255.054688 271.980469 252 275.875 C 247.828125 281.1875 243.199219 286.113281 240.234375 288.402344 C 238 290.125 237.210938 291.101562 237.332031 291.957031 C 237.425781 292.605469 237.890625 293.210938 238.359375 293.300781 C 239.652344 293.546875 246.027344 287.933594 251.082031 282.105469 L 255.601562 276.886719 L 256.253906 278.503906 C 257.296875 281.117188 258.28125 291.015625 258.078125 296.824219 L 257.890625 302.203125 L 256.1875 302.355469 C 248.726562 303.023438 237.898438 306.277344 225.613281 311.542969 C 217.421875 315.058594 208.476562 317.835938 200.113281 319.457031 C 193.136719 320.808594 176.085938 321.4375 168.707031 320.625 C 162.765625 319.96875 153.546875 318.023438 147.199219 316.082031 C 140.109375 313.914062 133.289062 312.679688 128.3125 312.667969 C 126.089844 312.664062 123.753906 312.519531 123.128906 312.351562 C 121.695312 311.964844 113.941406 296.816406 114.617188 295.722656 C 115.28125 294.648438 118.921875 295.242188 129.644531 298.1875 C 137.304688 300.292969 149.628906 303.386719 154.273438 304.363281 C 158.097656 305.167969 160.96875 305.734375 167.585938 306.972656 C 175.183594 308.398438 197.21875 310.421875 204.945312 310.410156 C 210.472656 310.402344 222.6875 308.957031 224.238281 308.128906 C 225.152344 307.640625 225.292969 307.316406 224.796875 306.820312 C 224.03125 306.058594 217.4375 306.191406 214.515625 307.027344 C 211.917969 307.773438 206.125 307.722656 202.828125 306.929688 C 193.9375 304.78125 176.9375 298.433594 164.550781 292.632812 C 161.488281 291.199219 158.875 290.027344 158.746094 290.027344 C 158.226562 290.027344 147.394531 283.589844 143.601562 281.023438 C 137.386719 276.820312 130.578125 269.316406 126.316406 261.992188 C 124.328125 258.574219 121.34375 253.46875 119.691406 250.65625 C 112.503906 238.402344 110.425781 229.453125 114.773438 229.453125 C 116 229.453125 117.382812 230.527344 121.15625 234.417969 C 125.148438 238.539062 126.777344 240.832031 130.714844 247.863281 C 136.75 258.640625 141.78125 266.214844 146.578125 271.769531 C 150.609375 276.433594 152.867188 277.648438 152.867188 275.152344 C 152.867188 274.402344 152.316406 273.300781 151.652344 272.710938 C 150.1875 271.394531 145.5 265.363281 145.5 264.796875 C 145.5 264.574219 146.832031 265.65625 148.46875 267.199219 C 161.972656 279.953125 184.34375 290.589844 205.230469 294.183594 C 219.171875 296.582031 220.234375 296.664062 220.234375 295.40625 C 220.234375 294.9375 220.101562 294.554688 219.941406 294.554688 C 218.894531 294.554688 210.542969 292.039062 208.394531 291.074219 C 201.816406 288.117188 196.640625 285.285156 195.605469 284.070312 C 194.984375 283.335938 192.691406 281.546875 190.511719 280.085938 C 169.847656 266.238281 145.351562 238.070312 132.449219 213.316406 C 130.5 209.578125 128.347656 205.96875 127.660156 205.296875 C 125.078125 202.773438 119.839844 183.570312 117.257812 167.167969 C 113.664062 144.316406 113.011719 115.890625 115.394531 86.222656 C 115.746094 81.851562 115.902344 81.367188 117.195312 80.746094 C 117.972656 80.371094 125.097656 77.960938 133.039062 75.386719 C 140.980469 72.816406 148.539062 70.25 149.832031 69.679688 C 151.125 69.113281 152.535156 68.785156 152.953125 68.960938 C 153.371094 69.136719 154.808594 70.660156 156.148438 72.332031 C 159.117188 76.035156 165.007812 80.882812 169.472656 83.300781 C 176.8125 87.273438 186.03125 89.007812 194.023438 87.914062 C 208.742188 85.902344 219.65625 78.4375 227.40625 65.109375 C 228.808594 62.695312 230.023438 60.722656 230.109375 60.722656 Z M 103.773438 87.707031 C 104.566406 87.570312 104.601562 88.566406 103.792969 90.621094 C 102.796875 93.164062 101.480469 93.6875 100.148438 92.085938 C 99.496094 91.296875 99.6875 90.914062 101.558594 89.203125 C 102.550781 88.292969 103.296875 87.792969 103.773438 87.707031 Z M 97.988281 94.691406 C 98.238281 94.691406 99.113281 95.277344 99.929688 95.980469 L 101.414062 97.257812 L 100.554688 100.933594 C 100.078125 102.953125 99.550781 105.558594 99.363281 106.726562 C 99.179688 107.894531 98.824219 108.855469 98.589844 108.855469 C 98.054688 108.855469 94.539062 105.265625 94.539062 104.71875 C 94.539062 104.5 94.890625 104.328125 95.328125 104.328125 C 96.402344 104.328125 96.832031 103.015625 97.214844 98.523438 C 97.390625 96.421875 97.738281 94.691406 97.988281 94.691406 Z M 286.46875 99.789062 C 287.214844 99.789062 288.753906 107.027344 289.515625 114.082031 C 290.167969 120.148438 290.351562 120.792969 291.730469 121.875 C 293.679688 123.40625 294.382812 126.058594 293.804688 129.71875 C 293.394531 132.296875 293.582031 133.339844 295.339844 138.4375 C 300.488281 153.339844 307.519531 176.9375 306.972656 177.449219 C 306.394531 177.996094 301.566406 179.402344 291.621094 181.933594 C 286.820312 183.15625 282.554688 184.160156 282.136719 184.160156 C 281.214844 184.160156 281.171875 181.320312 281.917969 169.625 C 282.214844 165.007812 282.589844 148.542969 282.75 133.046875 L 283.042969 104.875 L 284.527344 102.332031 C 285.347656 100.933594 286.222656 99.789062 286.46875 99.789062 Z M 273.289062 102.734375 C 274.742188 102.746094 275.148438 103.636719 275.078125 106.019531 C 275.03125 107.695312 274.460938 108.519531 271.378906 111.375 L 267.746094 114.75 L 268.105469 112.226562 C 268.304688 110.839844 268.667969 108.9375 268.925781 108.003906 C 269.179688 107.070312 269.546875 105.617188 269.730469 104.773438 C 270 103.5625 270.496094 103.15625 272.109375 102.855469 C 272.5625 102.769531 272.953125 102.730469 273.289062 102.734375 Z M 92.707031 108.910156 C 93.101562 108.90625 93.925781 109.53125 95.542969 110.984375 L 98.53125 113.667969 L 97.878906 115.925781 C 97.203125 118.273438 97.398438 130.132812 98.46875 152.164062 C 98.753906 158.082031 99.257812 169.367188 99.582031 177.242188 C 99.902344 185.113281 100.308594 191.785156 100.484375 192.070312 C 100.660156 192.355469 100.300781 192.855469 99.691406 193.183594 C 96.976562 194.632812 80.726562 193 79.164062 191.121094 C 78.796875 190.679688 78.511719 189.125 78.519531 187.660156 C 78.53125 186.066406 78.1875 184.601562 77.667969 184.007812 C 76.933594 183.160156 76.914062 182.660156 77.515625 180.613281 C 78.996094 175.59375 83.191406 170.613281 89.050781 166.90625 C 90.859375 165.761719 92.480469 164.460938 92.652344 164.015625 C 93.398438 162.0625 91.992188 159.867188 86.617188 154.632812 L 81.007812 149.175781 L 81.597656 146.992188 C 81.921875 145.789062 82.929688 142.152344 83.835938 138.90625 C 84.738281 135.660156 85.480469 132.339844 85.480469 131.53125 C 85.480469 129.375 86.976562 127.585938 89.792969 126.378906 C 92.558594 125.195312 92.882812 124.136719 91.386719 121.242188 C 90.585938 119.691406 90.589844 119.082031 91.375 114.902344 C 91.851562 112.355469 92.3125 109.832031 92.402344 109.292969 C 92.441406 109.050781 92.527344 108.910156 92.707031 108.910156 Z M 279.332031 110.636719 C 279.371094 110.632812 279.410156 110.648438 279.441406 110.679688 C 279.925781 111.160156 278.476562 184.507812 277.945312 186.515625 C 277.34375 188.804688 274.980469 191.101562 271.902344 192.386719 C 270.8125 192.84375 269.429688 193.21875 268.824219 193.21875 C 267.75 193.21875 267.730469 192.789062 268.105469 175.234375 C 268.429688 159.933594 268.652344 156.632812 269.609375 153.015625 C 271.332031 146.507812 272.09375 143.410156 272.875 139.703125 C 273.265625 137.835938 273.78125 135.542969 274.03125 134.609375 C 274.277344 133.675781 274.902344 130.496094 275.414062 127.539062 C 275.929688 124.578125 276.597656 121.085938 276.890625 119.78125 C 277.183594 118.472656 277.421875 116.621094 277.421875 115.65625 C 277.421875 114.070312 278.761719 110.652344 279.332031 110.636719 Z M 274.71875 112.535156 L 274.402344 114.234375 C 274.226562 115.171875 273.921875 117.078125 273.722656 118.480469 C 273.078125 123.070312 269.109375 142.253906 268.726562 142.640625 C 268.605469 142.761719 268.351562 142.078125 268.160156 141.113281 C 267.964844 140.144531 267.554688 139.511719 267.242188 139.703125 C 266.933594 139.894531 266.441406 140.867188 266.152344 141.863281 C 265.457031 144.261719 265.382812 132.359375 266.054688 126.578125 C 266.464844 123.019531 266.847656 122.039062 269.074219 118.929688 C 270.480469 116.96875 272.332031 114.730469 273.179688 113.953125 Z M 307.726562 180.953125 C 308.226562 180.914062 308.570312 181.292969 308.773438 182.109375 C 308.964844 182.867188 309.265625 183.871094 309.449219 184.347656 C 309.667969 184.917969 309.222656 185.5 308.140625 186.058594 C 305.429688 187.460938 296.199219 190.375 289.875 191.832031 C 283.054688 193.402344 280.816406 193.554688 280.816406 192.441406 C 280.816406 192.019531 280.976562 190.53125 281.167969 189.136719 C 281.480469 186.851562 281.636719 186.625 282.835938 186.855469 C 284.074219 187.09375 290.8125 185.855469 294.6875 184.683594 C 295.621094 184.402344 298.683594 183.523438 301.484375 182.71875 C 304.285156 181.917969 307 181.132812 307.507812 180.984375 C 307.585938 180.960938 307.65625 180.957031 307.726562 180.953125 Z M 105.507812 181.398438 C 105.519531 181.394531 105.527344 181.398438 105.539062 181.410156 C 105.757812 181.613281 106.832031 184.917969 107.929688 188.765625 C 109.027344 192.613281 110.066406 196.207031 110.230469 196.753906 C 110.445312 197.457031 110.210938 197.746094 109.4375 197.746094 C 107.421875 197.746094 106.332031 196.40625 106.183594 193.75 C 106.109375 192.367188 105.84375 188.9375 105.59375 186.136719 C 105.363281 183.507812 105.332031 181.476562 105.507812 181.398438 Z M 277.160156 193.675781 C 277.332031 193.652344 277.421875 193.671875 277.421875 193.742188 C 277.421875 194.648438 274.507812 197.761719 272.851562 198.617188 C 270.9375 199.609375 268.023438 199.703125 267.460938 198.792969 C 267.015625 198.070312 268.6875 196.609375 269.960938 196.609375 C 270.40625 196.609375 272.265625 195.847656 274.09375 194.917969 C 275.46875 194.222656 276.65625 193.75 277.160156 193.675781 Z M 113.191406 207.128906 C 113.328125 207.140625 113.464844 207.441406 113.667969 207.9375 C 114.582031 210.140625 116.511719 215.441406 116.910156 216.851562 C 117.109375 217.554688 117.183594 218.121094 117.085938 218.105469 C 116.984375 218.09375 115.675781 216.949219 114.171875 215.566406 L 111.433594 213.042969 L 112.261719 209.78125 C 112.746094 207.875 112.960938 207.109375 113.191406 207.128906 Z M 122.597656 221.335938 C 122.808594 221.410156 123.816406 222.921875 125.136719 225.199219 C 132.894531 238.558594 140.476562 247.480469 151.164062 255.820312 C 157.269531 260.582031 161.921875 265.128906 161.921875 266.339844 C 161.921875 268.539062 156.796875 266.792969 149.625 262.148438 C 143.914062 258.449219 141.144531 255.332031 136.082031 246.9375 C 133.570312 242.769531 130.4375 237.621094 129.132812 235.5 C 126.835938 231.773438 123.398438 224.425781 122.585938 221.523438 C 122.542969 221.378906 122.546875 221.320312 122.59375 221.335938 Z M 108.082031 246.152344 L 109.152344 248.703125 C 115.425781 263.691406 123.246094 276.285156 129.242188 281.070312 C 131.707031 283.035156 147.414062 291.15625 148.761719 291.164062 C 149.324219 291.164062 156.792969 294.230469 158.898438 295.320312 C 159.824219 295.796875 160.917969 296.589844 161.320312 297.078125 C 162.386719 298.359375 161.566406 298.175781 152.867188 295.277344 C 146.15625 293.042969 130.546875 286.457031 120.164062 281.472656 C 116.347656 279.640625 112.886719 278.144531 112.46875 278.144531 C 112.050781 278.144531 111.234375 276.730469 110.648438 275.003906 C 109.582031 271.867188 109.574219 271.851562 110.832031 268.347656 C 112.578125 263.476562 112.464844 260.382812 110.375 255.917969 C 109.429688 253.898438 108.535156 250.882812 108.378906 249.207031 Z M 111.726562 280.972656 C 111.867188 280.972656 115.253906 282.574219 119.257812 284.527344 L 130.78125 290.160156 C 135.6875 292.554688 135.605469 292.585938 128.792969 290.902344 C 121.121094 289.003906 116.425781 288.210938 113.996094 288.425781 L 111.816406 288.621094 L 111.640625 284.789062 C 111.546875 282.6875 111.589844 280.972656 111.726562 280.972656 Z M 111.726562 280.972656 " fill-opacity="0.071" fill-rule="nonzero"/><g clip-path="url(#261bf074b5)"><path fill="#ffffff" d="M 158.207031 48.382812 C 158.089844 48.378906 157.96875 48.386719 157.835938 48.394531 L 157.816406 48.394531 C 157.714844 48.394531 157.597656 48.417969 157.476562 48.4375 C 157.464844 48.441406 157.449219 48.4375 157.433594 48.4375 C 155.878906 48.683594 153.5625 49.800781 149.644531 52.105469 C 142.277344 56.433594 119.179688 64.605469 107.9375 66.859375 C 101.441406 68.160156 97.28125 69.863281 93.847656 72.621094 C 91.230469 74.722656 87.28125 80.46875 85.535156 84.710938 C 83.742188 89.0625 81.421875 97.136719 81.421875 98.992188 C 81.421875 100.023438 80.679688 101.609375 79.488281 103.152344 C 77.476562 105.761719 76.332031 108.953125 76.324219 111.957031 C 76.324219 112.929688 75.96875 114.027344 75.527344 114.390625 C 73.800781 115.824219 72.859375 119.039062 72.625 124.332031 C 72.4375 128.585938 71.921875 131.089844 70.128906 136.628906 C 65.085938 152.195312 61.589844 165.675781 60.753906 172.75 C 60.632812 173.753906 60.445312 176.390625 60.285156 179.316406 C 60.277344 179.445312 60.269531 179.558594 60.261719 179.6875 C 60.179688 180.96875 60.097656 182.242188 60.054688 183.410156 C 60.007812 184.757812 59.984375 185.808594 59.96875 186.703125 C 59.933594 188.742188 59.996094 189.78125 60.230469 190.382812 C 60.234375 190.394531 60.238281 190.414062 60.242188 190.425781 C 60.613281 191.6875 61.410156 191.988281 62.914062 192.300781 C 63.90625 192.507812 66.113281 193.265625 67.824219 193.984375 C 71.003906 195.3125 76.859375 197.136719 81.421875 198.226562 C 82.820312 198.5625 87.910156 198.988281 92.738281 199.167969 C 100.941406 199.46875 101.613281 199.578125 102.949219 200.824219 C 103.738281 201.558594 105.230469 202.460938 106.265625 202.820312 C 106.824219 203.015625 107.214844 203.152344 107.476562 203.324219 L 107.488281 203.335938 C 107.648438 203.457031 107.769531 203.609375 107.871094 203.78125 C 108.019531 204.160156 107.945312 204.722656 107.785156 205.722656 C 107.585938 206.960938 106.894531 209.414062 106.246094 211.167969 C 105.597656 212.925781 104.832031 215.890625 104.53125 217.761719 C 103.933594 221.488281 104.324219 229.039062 105.285156 232.261719 C 105.789062 233.953125 105.699219 234.84375 104.773438 237.359375 C 101.804688 245.402344 101.9375 250.875 105.253906 257.882812 C 107.199219 261.996094 107.28125 263.480469 105.765625 267.015625 C 104.488281 269.996094 104.28125 274.679688 105.339844 276.542969 C 105.820312 277.386719 106.152344 282.273438 106.386719 291.929688 C 106.679688 303.875 106.921875 306.910156 108.003906 311.382812 C 109.023438 315.617188 109.402344 317.433594 111.308594 318.148438 L 111.339844 318.160156 C 111.878906 318.429688 112.527344 318.535156 113.328125 318.519531 C 114.820312 318.621094 116.84375 318.53125 119.734375 318.421875 C 130 318.03125 135.441406 318.707031 145.8125 321.628906 C 153.652344 323.839844 157.296875 324.613281 164.078125 325.527344 C 164.71875 325.613281 165.898438 325.699219 167.363281 325.777344 C 167.71875 325.855469 167.972656 325.929688 168.019531 325.972656 C 168.203125 326.15625 171.996094 326.164062 176.898438 326.082031 L 177.03125 326.082031 C 177.902344 326.09375 178.78125 326.097656 179.648438 326.105469 C 199.875 326.246094 208.601562 324.546875 227.769531 316.71875 C 242.695312 310.628906 247.84375 309.085938 256.457031 308.121094 C 258.960938 307.839844 261.261719 307.367188 261.566406 307.0625 C 264.066406 304.5625 263.421875 282.144531 260.660156 275.539062 C 259.871094 273.648438 259.914062 273.320312 261.433594 269.636719 C 264.273438 262.746094 265.074219 259.375 265.066406 254.28125 C 265.0625 250.378906 264.820312 248.992188 263.769531 246.960938 C 262.339844 244.195312 262.351562 243.554688 264.074219 234.75 C 264.828125 230.890625 265.085938 226.660156 265.113281 217.367188 L 265.144531 205.125 L 265.691406 205.089844 L 268.613281 205.089844 C 272.746094 205.089844 275.75 203.957031 278.445312 201.371094 C 280.203125 199.683594 281.136719 199.332031 286.75 198.269531 C 297.933594 196.160156 311.425781 191.582031 313.722656 189.117188 C 314.003906 188.816406 314.207031 188.566406 314.347656 188.277344 L 314.355469 188.253906 C 314.578125 187.917969 314.683594 187.585938 314.683594 187.25 C 314.683594 186.980469 314.5625 186.324219 314.367188 185.449219 C 314.214844 184.5 313.972656 183.261719 313.625 181.519531 C 312.589844 176.339844 304.824219 150.714844 300.761719 139.0625 C 299.035156 134.117188 298.832031 132.964844 299.144531 129.976562 C 299.578125 125.839844 298.820312 122.734375 296.65625 119.75 C 295.410156 118.027344 294.972656 116.648438 294.683594 113.574219 C 293.996094 106.269531 289.644531 89.195312 287.285156 84.546875 C 282.972656 76.058594 276.527344 72.152344 254.210938 64.503906 C 238.210938 59.019531 231.769531 56.367188 227.367188 53.417969 C 225.101562 51.898438 222.789062 50.480469 222.226562 50.273438 C 221.640625 50.058594 219.828125 50.476562 217.980469 51.246094 C 211.621094 53.894531 200.929688 55.507812 189.558594 55.535156 C 177.402344 55.558594 170.765625 54.046875 159.15625 48.617188 C 158.875 48.484375 158.5625 48.402344 158.207031 48.386719 Z M 157.117188 53.292969 C 157.121094 53.296875 157.125 53.292969 157.128906 53.292969 C 157.132812 53.296875 157.136719 53.304688 157.140625 53.304688 L 159.84375 57.953125 C 163.265625 63.839844 171.351562 72.042969 176.269531 74.628906 C 178.140625 75.613281 181.578125 76.859375 183.90625 77.386719 C 187.570312 78.222656 188.628906 78.25 191.816406 77.628906 C 196.308594 76.753906 201.34375 74.554688 205.773438 71.527344 C 209.054688 69.285156 217.371094 61.058594 220.1875 57.277344 L 221.652344 55.324219 L 224.28125 56.992188 C 225.914062 58.023438 226.921875 59.078125 226.921875 59.742188 C 226.921875 61.285156 223.503906 67.144531 220.296875 71.101562 C 214.273438 78.535156 206.449219 83.246094 196.769531 85.265625 C 179.445312 88.882812 161.050781 79.484375 152.359375 62.582031 C 149.863281 57.726562 149.941406 57.417969 154.234375 54.941406 Z M 161.613281 55.671875 C 162.101562 55.703125 163.820312 56.214844 165.769531 56.917969 C 172.8125 59.457031 176.015625 60.152344 184.398438 60.300781 C 187.652344 60.640625 189.734375 60.640625 193.726562 60.300781 C 202.925781 60.136719 208.914062 59.402344 214.460938 57.8125 C 215.515625 57.511719 216.476562 57.363281 216.597656 57.484375 C 216.722656 57.605469 215.207031 59.40625 213.238281 61.480469 C 209.609375 65.296875 209.378906 65.40625 202.859375 66.890625 C 199.414062 67.675781 185.277344 68.011719 180.546875 67.414062 C 178.238281 67.125 174.277344 66.246094 171.738281 65.472656 C 167.136719 64.070312 167.109375 64.0625 164.175781 60.003906 C 162.5625 57.769531 161.351562 55.824219 161.480469 55.695312 C 161.5 55.679688 161.542969 55.667969 161.613281 55.671875 Z M 147.613281 58.980469 C 147.617188 58.980469 147.621094 58.988281 147.625 58.992188 L 150.035156 63.617188 C 151.964844 67.324219 153.707031 69.53125 158.6875 74.539062 C 163.773438 79.65625 165.769531 81.242188 169.457031 83.117188 C 180.671875 88.8125 191.160156 89.664062 202.683594 85.824219 C 213.15625 82.332031 222.234375 74.289062 227.792969 63.574219 C 228.914062 61.410156 229.609375 60.628906 230.261719 60.835938 C 230.757812 60.992188 233.597656 62.066406 236.554688 63.214844 C 239.515625 64.359375 247.378906 67.167969 254.035156 69.464844 C 276.199219 77.109375 281.429688 80.757812 284.6875 90.84375 L 285.789062 94.234375 C 285.796875 94.355469 285.800781 94.476562 285.800781 94.585938 C 285.800781 94.667969 285.78125 94.761719 285.757812 94.878906 L 283.257812 99.351562 C 281.800781 101.953125 280 104.816406 279.265625 105.714844 C 277.960938 107.308594 277.921875 107.320312 277.902344 106.054688 C 277.878906 104.59375 276.363281 101.34375 275.402344 100.707031 C 274.410156 100.050781 271.378906 100.210938 270.632812 100.957031 C 269.210938 102.382812 269.859375 103.140625 272.171875 102.769531 C 274.027344 102.472656 274.476562 102.601562 275 103.578125 C 275.929688 105.316406 275.800781 109.339844 274.8125 109.339844 C 274.371094 109.339844 272.488281 111.015625 270.632812 113.070312 C 268.777344 115.125 267.125 116.59375 266.957031 116.320312 C 266.660156 115.839844 267.097656 113.269531 268.527344 107.070312 C 268.921875 105.355469 269.121094 103.753906 268.976562 103.5 C 268.335938 102.398438 266.742188 105.046875 266.074219 108.324219 C 264.363281 116.6875 264.101562 118.324219 263.386719 125.105469 C 263.074219 128.105469 262.125 151.015625 261.46875 171.613281 C 261.15625 181.421875 260.707031 191.105469 260.464844 193.132812 C 260.210938 195.238281 257.933594 202.984375 255.140625 211.246094 C 252.453125 219.1875 249.429688 228.230469 248.429688 231.34375 C 244.027344 245.015625 236.335938 263.867188 232.5625 270.238281 C 231.332031 272.316406 230.324219 274.171875 230.324219 274.371094 C 230.324219 274.574219 230.867188 274.65625 231.535156 274.558594 C 234.226562 274.15625 242.015625 256.699219 250.6875 231.628906 C 251.386719 229.605469 252.8125 225.785156 253.851562 223.140625 C 254.890625 220.492188 256.550781 215.976562 257.539062 213.101562 C 258.527344 210.226562 259.558594 208.011719 259.832031 208.179688 C 260.53125 208.613281 260.453125 224.070312 259.722656 229.90625 C 258.097656 242.90625 257.023438 246.671875 252.324219 255.855469 C 247.757812 264.777344 242.476562 274.015625 236.117188 284.191406 C 233.621094 288.191406 232.644531 290.234375 233.042969 290.628906 C 233.359375 290.949219 233.886719 291.046875 234.210938 290.847656 C 235.6875 289.933594 249.261719 266.757812 255.105469 255.175781 C 258.449219 248.554688 258.875 247.964844 259.570312 248.914062 C 260.84375 250.660156 260.769531 256.132812 259.40625 261.070312 C 257.96875 266.269531 254.632812 273.632812 252.226562 276.921875 C 250.972656 278.636719 247.171875 282.777344 243.777344 286.121094 C 237.871094 291.949219 236.304688 294.5625 240.027344 292.363281 C 241.847656 291.289062 250.261719 282.792969 253.632812 278.625 L 255.695312 276.074219 L 256.328125 277.6875 C 257.464844 280.617188 258.34375 288.40625 258.566406 294.566406 C 258.566406 294.621094 258.566406 294.667969 258.566406 294.722656 C 258.5625 295.191406 258.542969 295.660156 258.53125 296.128906 L 258.390625 301.550781 L 258.390625 301.5625 C 258.285156 302.222656 258.140625 302.675781 257.953125 302.859375 C 257.582031 303.234375 256.417969 303.539062 255.378906 303.539062 C 250.074219 303.539062 239.558594 306.710938 225.796875 312.464844 C 213.160156 317.742188 203.132812 320.4375 191.730469 321.640625 C 186.789062 322.160156 175.367188 322.273438 170.875 321.847656 C 163.652344 321.160156 154.28125 319.21875 145.308594 316.554688 C 138.082031 314.40625 128.222656 313.089844 120.300781 313.207031 C 116.929688 313.253906 113.957031 313.074219 113.699219 312.800781 C 112.605469 311.65625 111.441406 300.898438 111.222656 289.917969 C 111.03125 280.535156 110.789062 277.726562 109.957031 275.382812 C 109.46875 274.011719 109.210938 273.269531 109.214844 272.492188 C 109.21875 272.382812 109.226562 272.265625 109.234375 272.15625 C 109.238281 272.128906 109.242188 272.105469 109.246094 272.078125 C 109.332031 271.332031 109.640625 270.441406 110.183594 268.890625 C 111.941406 263.890625 111.808594 260.917969 109.617188 256.203125 C 107.148438 250.882812 107.085938 246.339844 109.398438 239.429688 L 111.046875 234.488281 L 110.109375 230.570312 C 108.71875 224.816406 108.878906 219.09375 110.578125 213.742188 C 111.355469 211.292969 112.144531 208.453125 112.335938 207.4375 C 112.738281 205.289062 113.429688 205.027344 113.863281 206.859375 C 114.703125 210.410156 121.226562 228.167969 123.703125 233.65625 C 128.617188 244.542969 137.515625 259.882812 143.554688 267.867188 C 146.070312 271.195312 151.007812 276.355469 151.671875 276.355469 C 152.894531 276.355469 152.003906 274.503906 149.304688 271.433594 C 147.714844 269.625 145.324219 266.625 144 264.757812 C 138.097656 256.421875 126.394531 234.058594 121.773438 222.289062 C 119.878906 217.460938 116.242188 206.363281 112.867188 195.117188 C 112.027344 192.316406 111.117188 189.382812 110.851562 188.605469 C 108.878906 182.863281 105.96875 165.308594 106.539062 162.589844 C 106.707031 161.792969 106.488281 158.972656 106.058594 156.328125 C 103.988281 143.570312 103.609375 129.808594 104.980469 117.828125 C 106.5 104.546875 106.546875 102.023438 105.371094 98.875 C 104.566406 96.71875 103.722656 95.664062 101.78125 94.378906 C 100.386719 93.457031 99.050781 92.363281 98.804688 91.957031 C 98.136719 90.867188 95.695312 91.0625 95.0625 92.25 C 94.757812 92.816406 94.425781 94.917969 94.320312 96.921875 C 94.210938 98.925781 93.878906 100.546875 93.578125 100.535156 C 92.722656 100.5 88.632812 93.417969 88.632812 91.96875 C 88.632812 89.984375 91.007812 84.503906 93.414062 80.914062 C 96.847656 75.796875 100.015625 73.800781 107.183594 72.25 C 117.5 70.015625 136.09375 64.105469 144.382812 60.421875 Z M 172.949219 68.714844 C 173.179688 68.703125 173.625 68.777344 174.324219 68.898438 C 175.386719 69.085938 177.140625 69.527344 178.230469 69.871094 C 181.121094 70.78125 198.917969 70.707031 201.628906 69.773438 C 202.816406 69.363281 203.921875 69.152344 204.082031 69.3125 C 204.496094 69.730469 199.695312 72.449219 196.203125 73.777344 C 192.773438 75.082031 186.300781 75.570312 183.109375 74.769531 C 180.375 74.082031 174.667969 71.078125 173.367188 69.640625 C 172.777344 68.992188 172.570312 68.730469 172.949219 68.714844 Z M 97.90625 94.738281 C 99.320312 94.792969 102.242188 98.085938 102.925781 100.53125 C 103.585938 102.882812 103.355469 109.277344 102.535156 111.410156 C 102.375 111.824219 102.082031 112.160156 101.878906 112.152344 C 100.84375 112.125 96.082031 108.59375 94.523438 106.707031 C 92.332031 104.046875 92.207031 102.945312 94.152344 103.433594 C 95.84375 103.859375 96.042969 103.46875 96.585938 98.578125 C 96.808594 96.605469 97.285156 94.890625 97.644531 94.769531 C 97.726562 94.746094 97.8125 94.734375 97.90625 94.738281 Z M 286.554688 98.929688 C 286.757812 98.941406 286.886719 99.246094 287.078125 99.746094 C 288.136719 102.542969 289.71875 110.886719 290.101562 115.679688 C 290.457031 120.136719 290.640625 120.742188 292.097656 122.039062 C 294.101562 123.824219 294.535156 125.488281 294.136719 129.875 C 293.855469 132.996094 294.121094 134.179688 296.917969 142.414062 C 299.601562 150.304688 307.75 176.765625 307.875 177.960938 C 307.871094 177.996094 307.875 178.027344 307.863281 178.0625 C 307.402344 178.570312 299.914062 180.992188 295.4375 182.066406 C 293.410156 182.550781 290.863281 183.183594 289.773438 183.472656 C 288.683594 183.761719 286.582031 184.300781 285.101562 184.671875 C 282.339844 185.367188 281.347656 186.898438 283.660156 186.898438 C 285.296875 186.898438 295.363281 184.417969 302.441406 182.273438 C 305.515625 181.339844 308.210938 180.792969 308.441406 181.050781 C 308.675781 181.308594 309.167969 182.417969 309.535156 183.507812 C 310.128906 185.277344 310.070312 185.585938 309.03125 186.429688 C 307.453125 187.71875 297.089844 191.113281 289.488281 192.835938 C 286.0625 193.613281 282.546875 194.25 281.675781 194.253906 L 280.082031 194.265625 L 280.386719 189.59375 C 281.101562 178.515625 281.460938 164.894531 281.785156 135.941406 L 282.132812 105.234375 C 282.191406 105.097656 282.257812 104.953125 282.332031 104.796875 L 284.339844 101.71875 C 285.671875 99.691406 286.214844 98.90625 286.554688 98.925781 Z M 86.375 99.714844 C 86.609375 99.714844 87.429688 100.921875 88.207031 102.398438 C 89.621094 105.085938 95.707031 111.328125 99.917969 114.421875 L 102.140625 116.070312 L 101.652344 120.773438 C 101.101562 125.964844 101.5625 144.574219 102.402344 151.230469 C 102.699219 153.566406 103.164062 158.792969 103.453125 162.839844 C 103.738281 166.886719 104.238281 171.730469 104.554688 173.597656 C 105.226562 177.574219 108.109375 188.839844 109.78125 194.015625 C 110.421875 196 110.785156 197.886719 110.589844 198.207031 C 109.828125 199.4375 107.777344 198.710938 105.710938 196.46875 C 103.414062 193.984375 103.113281 193.910156 97.546875 194.5625 C 97.253906 194.59375 96.949219 194.625 96.644531 194.648438 L 94.121094 194.625 C 92.832031 194.613281 91.746094 194.589844 90.75 194.570312 C 84.054688 193.988281 75.84375 191.847656 67.539062 188.417969 C 64.75 187.265625 64.121094 186.746094 63.972656 185.535156 C 63.867188 184.667969 64.113281 183.945312 64.570312 183.769531 C 65 183.605469 67.980469 184.382812 71.195312 185.503906 C 75.363281 186.953125 77.222656 187.367188 77.65625 186.933594 C 78.757812 185.832031 76.210938 184.140625 70.441406 182.132812 C 67.597656 181.140625 65.191406 180.257812 64.789062 180.058594 C 64.75 179.992188 64.710938 179.921875 64.679688 179.851562 C 64.667969 178.417969 66.628906 167.734375 67.878906 162.578125 C 69.4375 156.140625 73.929688 140.839844 75.222656 137.558594 C 76.472656 134.386719 78.011719 125.941406 78.015625 122.257812 C 78.015625 120.273438 78.371094 119.195312 79.421875 117.949219 C 81.289062 115.730469 81.988281 113.746094 81.988281 110.660156 C 81.988281 108.550781 82.332031 107.6875 83.960938 105.78125 C 85.363281 104.144531 85.949219 102.921875 85.949219 101.589844 C 85.949219 100.558594 86.140625 99.714844 86.375 99.714844 Z M 279.734375 109.917969 C 279.773438 109.921875 279.804688 109.933594 279.832031 109.960938 C 280.25 110.378906 279.144531 182.472656 278.675781 185.480469 C 278.152344 188.828125 276.941406 190.507812 273.570312 192.550781 C 271.234375 193.96875 269.671875 194.457031 266.757812 194.691406 L 262.984375 194.996094 L 263.367188 192.792969 C 264.144531 188.320312 264.839844 167.429688 264.808594 149.535156 C 264.773438 132.023438 265.28125 124.214844 266.617188 121.6875 C 267.648438 119.738281 273.960938 112.164062 274.550781 112.164062 C 274.960938 112.164062 275.035156 113.160156 274.792969 115.140625 C 273.707031 123.863281 269.53125 143.847656 268.015625 147.550781 C 267.632812 148.484375 266.851562 151.09375 266.269531 153.355469 C 265.417969 156.660156 265.34375 157.601562 265.917969 158.167969 C 266.492188 158.730469 266.777344 158.679688 267.359375 157.894531 C 267.957031 157.085938 270.277344 148.304688 273.371094 135.097656 C 274.257812 131.316406 275.464844 124.609375 276.175781 119.527344 C 276.546875 116.882812 276.957031 114.203125 277.082031 113.582031 C 277.351562 112.265625 279.148438 109.847656 279.734375 109.914062 Z M 277.34375 193.128906 C 279.410156 193.128906 275.40625 198.460938 272.390625 199.722656 C 270.605469 200.46875 268.566406 200.609375 266.28125 200.125 L 263.867188 199.613281 C 261.667969 199.140625 262.324219 197.660156 264.730469 197.660156 C 267.089844 197.660156 271.785156 196.097656 274.835938 194.296875 C 275.925781 193.65625 277.050781 193.128906 277.34375 193.128906 Z M 126.867188 206.792969 C 125.648438 206.726562 126.074219 208.300781 128.472656 213.097656 C 141.558594 239.28125 165.96875 267.597656 189.273438 283.625 C 193.21875 286.335938 196.445312 286.875 194.785156 284.550781 C 194.558594 284.230469 191.753906 282.113281 188.554688 279.847656 C 180.886719 274.410156 176.945312 271.113281 169.535156 263.925781 C 155.203125 250.027344 140.746094 230.878906 131.714844 213.808594 C 129.523438 209.664062 127.746094 206.941406 127.144531 206.824219 C 127.046875 206.808594 126.953125 206.796875 126.871094 206.792969 Z M 112.5625 279.652344 C 112.136719 279.6875 111.996094 279.929688 111.996094 280.351562 C 111.996094 280.992188 120.914062 285.511719 130.292969 289.625 C 134.082031 291.289062 138.972656 293.496094 141.152344 294.523438 C 143.332031 295.554688 147.789062 297.339844 151.058594 298.507812 C 157.105469 300.667969 160.398438 301.070312 160.398438 299.644531 C 160.398438 299.492188 160.125 299.277344 159.65625 299.007812 L 159.636719 298.988281 C 159.433594 298.820312 159.15625 298.675781 158.871094 298.59375 L 158.839844 298.585938 C 157.632812 298.019531 155.765625 297.3125 153.320312 296.488281 C 145.25 293.78125 131.945312 288.230469 120.691406 282.871094 C 115.765625 280.523438 113.496094 279.574219 112.5625 279.652344 Z M 112.5625 279.652344 " fill-opacity="1" fill-rule="nonzero"/></g></svg>