<svg xmlns="http://www.w3.org/2000/svg" xmlns:xlink="http://www.w3.org/1999/xlink" width="500" zoomAndPan="magnify" viewBox="0 0 375 374.999991" height="500" preserveAspectRatio="xMidYMid meet" version="1.0"><defs><clipPath id="28f68345e0"><path d="M 19.953125 19.964844 L 354.683594 19.964844 L 354.683594 354.695312 L 19.953125 354.695312 Z M 19.953125 19.964844 " clip-rule="nonzero"/></clipPath><clipPath id="15609a7319"><path d="M 187.320312 19.964844 C 94.886719 19.964844 19.953125 94.898438 19.953125 187.332031 C 19.953125 279.765625 94.886719 354.695312 187.320312 354.695312 C 279.75 354.695312 354.683594 279.765625 354.683594 187.332031 C 354.683594 94.898438 279.75 19.964844 187.320312 19.964844 Z M 187.320312 19.964844 " clip-rule="nonzero"/></clipPath><clipPath id="ac0111449f"><path d="M 113.3125 125 L 261.503906 125 L 261.503906 318.613281 L 113.3125 318.613281 Z M 113.3125 125 " clip-rule="nonzero"/></clipPath><clipPath id="2832cd0bc1"><path d="M 124 56.054688 L 251 56.054688 L 251 173 L 124 173 Z M 124 56.054688 " clip-rule="nonzero"/></clipPath></defs><g clip-path="url(#28f68345e0)"><g clip-path="url(#15609a7319)"><path fill="#222222" d="M 19.953125 19.964844 L 354.683594 19.964844 L 354.683594 354.695312 L 19.953125 354.695312 Z M 19.953125 19.964844 " fill-opacity="1" fill-rule="nonzero"/></g></g><g clip-path="url(#ac0111449f)"><path fill="#ffffff" d="M 221.507812 318.003906 C 216.484375 318.003906 211.457031 317.757812 206.429688 317.269531 C 205.386719 317.167969 204.566406 316.34375 204.464844 315.304688 C 198.929688 259.617188 193.097656 203.636719 187.40625 149.164062 C 184.324219 180.15625 181.253906 211.042969 178.1875 241.902344 L 171.011719 314.050781 C 170.910156 315.113281 170.0625 315.949219 169 316.023438 C 152.132812 317.285156 134.507812 316.160156 115.109375 312.5625 C 114.039062 312.367188 113.273438 311.40625 113.320312 310.316406 C 114.710938 278.664062 116.867188 246.5 119.726562 214.722656 C 119.828125 213.515625 120.898438 212.613281 122.101562 212.734375 C 123.308594 212.84375 124.199219 213.90625 124.089844 215.113281 C 121.292969 246.183594 119.175781 277.628906 117.785156 308.597656 C 135.363281 311.722656 151.449219 312.761719 166.835938 311.785156 L 173.820312 241.464844 C 177.597656 203.523438 181.371094 165.515625 185.171875 127.359375 C 185.28125 126.238281 186.222656 125.386719 187.34375 125.378906 C 187.351562 125.378906 187.351562 125.378906 187.351562 125.378906 C 188.476562 125.378906 189.414062 126.230469 189.53125 127.347656 L 190.089844 132.664062 C 196.25 191.582031 202.621094 252.480469 208.640625 313.070312 C 224.847656 314.453125 241.050781 313.222656 256.847656 309.398438 C 255.328125 278.304688 253.230469 246.726562 250.605469 215.507812 C 250.503906 214.304688 251.394531 213.242188 252.605469 213.144531 C 253.796875 213.03125 254.867188 213.933594 254.96875 215.148438 C 257.648438 247.015625 259.785156 279.257812 261.3125 310.980469 C 261.363281 312.023438 260.675781 312.953125 259.664062 313.214844 C 247.132812 316.398438 234.351562 318.003906 221.507812 318.003906 " fill-opacity="1" fill-rule="nonzero"/></g><g clip-path="url(#2832cd0bc1)"><path fill="#ffffff" d="M 248.621094 172.25 C 247.511719 172.25 246.558594 171.40625 246.441406 170.277344 C 244.894531 154.78125 243.167969 138.882812 241.304688 123.011719 C 239.386719 106.535156 237.316406 90.0625 235.160156 74.042969 L 235.0625 72.832031 C 234.753906 68.566406 234.714844 64.734375 234.722656 61.28125 C 229.070312 61.425781 223.375 61.535156 217.78125 61.605469 C 215.257812 61.652344 212.726562 61.6875 210.191406 61.714844 C 200.296875 61.816406 190.050781 61.84375 179.734375 61.796875 C 174.554688 61.761719 169.398438 61.722656 164.238281 61.667969 L 156.804688 61.5625 C 151.539062 61.488281 146.257812 61.398438 140.980469 61.304688 C 141.023438 64.96875 141.089844 68.640625 141.253906 72.511719 C 141.269531 73.140625 141.296875 73.722656 141.324219 74.296875 C 141.339844 74.457031 141.332031 74.613281 141.304688 74.765625 C 138.824219 90.710938 136.46875 107.089844 134.296875 123.449219 C 134.289062 123.476562 134.289062 123.503906 134.28125 123.523438 C 132.199219 139.253906 130.300781 154.851562 128.628906 169.878906 C 128.5 171.085938 127.410156 171.941406 126.210938 171.820312 C 125.007812 171.6875 124.144531 170.597656 124.273438 169.402344 C 125.945312 154.355469 127.84375 138.753906 129.933594 123.015625 C 129.933594 122.988281 129.933594 122.960938 129.9375 122.933594 C 132.105469 106.605469 134.460938 90.246094 136.941406 74.320312 C 136.90625 73.757812 136.886719 73.203125 136.878906 72.640625 C 136.679688 67.96875 136.617188 63.558594 136.570312 59.089844 C 136.5625 58.496094 136.804688 57.925781 137.222656 57.507812 C 137.640625 57.089844 138.179688 56.859375 138.808594 56.871094 C 144.824219 56.988281 150.851562 57.097656 156.867188 57.179688 L 164.292969 57.28125 C 169.4375 57.335938 174.589844 57.378906 179.753906 57.414062 C 190.042969 57.460938 200.277344 57.433594 210.148438 57.332031 C 212.667969 57.304688 215.191406 57.269531 217.710938 57.21875 C 224.046875 57.144531 230.488281 57.015625 236.863281 56.835938 C 237.445312 56.804688 238.03125 57.050781 238.453125 57.460938 C 238.878906 57.878906 239.117188 58.445312 239.113281 59.042969 C 239.089844 62.988281 239.070312 67.460938 239.433594 72.523438 L 239.523438 73.605469 C 241.667969 89.5 243.734375 106 245.660156 122.503906 C 247.523438 138.394531 249.257812 154.324219 250.804688 169.839844 C 250.929688 171.042969 250.042969 172.121094 248.847656 172.242188 C 248.769531 172.25 248.695312 172.25 248.621094 172.25 " fill-opacity="1" fill-rule="nonzero"/></g><path fill="#ffffff" d="M 189.078125 76.742188 C 185.996094 76.742188 182.988281 76.722656 180.082031 76.675781 C 174.917969 76.621094 169.535156 76.484375 164.09375 76.265625 C 161.59375 76.175781 159.09375 76.066406 156.585938 75.929688 C 150.921875 75.65625 144.960938 75.269531 138.890625 74.785156 C 137.6875 74.6875 136.789062 73.632812 136.886719 72.429688 C 136.980469 71.222656 138.03125 70.339844 139.242188 70.414062 C 145.261719 70.902344 151.175781 71.277344 156.8125 71.550781 C 159.3125 71.6875 161.785156 71.792969 164.257812 71.886719 C 169.664062 72.097656 175.007812 72.238281 180.136719 72.292969 C 184.589844 72.359375 189.277344 72.375 194.09375 72.339844 C 199.632812 72.292969 205.128906 72.175781 210.421875 71.984375 C 213.058594 71.902344 215.683594 71.792969 218.308594 71.652344 C 224.554688 71.375 230.863281 70.984375 237.078125 70.496094 C 238.277344 70.394531 239.339844 71.304688 239.433594 72.515625 C 239.53125 73.722656 238.625 74.777344 237.417969 74.867188 C 231.160156 75.359375 224.800781 75.75 218.527344 76.03125 C 215.882812 76.175781 213.226562 76.277344 210.566406 76.359375 C 205.246094 76.550781 199.710938 76.675781 194.125 76.722656 C 192.425781 76.738281 190.742188 76.742188 189.078125 76.742188 " fill-opacity="1" fill-rule="nonzero"/><path fill="#ffffff" d="M 156.710938 75.929688 C 155.53125 75.929688 154.558594 74.996094 154.519531 73.804688 C 154.359375 68.878906 154.410156 63.980469 154.648438 59.253906 C 154.710938 58.050781 155.757812 57.125 156.949219 57.179688 C 158.164062 57.242188 159.085938 58.269531 159.027344 59.480469 C 158.792969 64.089844 158.75 68.859375 158.902344 73.667969 C 158.941406 74.878906 157.992188 75.886719 156.777344 75.929688 C 156.757812 75.929688 156.730469 75.929688 156.710938 75.929688 " fill-opacity="1" fill-rule="nonzero"/><path fill="#ffffff" d="M 164.175781 76.269531 C 164.175781 76.269531 164.171875 76.269531 164.164062 76.269531 C 162.949219 76.257812 161.976562 75.269531 161.984375 74.058594 C 162.019531 69.539062 162.046875 65.007812 162.066406 60.488281 L 162.066406 59.460938 C 162.074219 58.253906 163.054688 57.28125 164.257812 57.28125 C 164.265625 57.28125 164.265625 57.28125 164.273438 57.28125 C 165.484375 57.289062 166.457031 58.277344 166.449219 59.488281 L 166.449219 60.507812 C 166.429688 65.035156 166.402344 69.570312 166.367188 74.09375 C 166.363281 75.296875 165.382812 76.269531 164.175781 76.269531 " fill-opacity="1" fill-rule="nonzero"/><path fill="#ffffff" d="M 210.5 76.359375 C 209.3125 76.359375 208.332031 75.414062 208.304688 74.214844 L 207.984375 59.570312 C 207.957031 58.359375 208.914062 57.359375 210.128906 57.332031 C 211.300781 57.253906 212.339844 58.261719 212.363281 59.472656 L 212.691406 74.121094 C 212.71875 75.332031 211.757812 76.332031 210.546875 76.359375 C 210.53125 76.359375 210.519531 76.359375 210.5 76.359375 " fill-opacity="1" fill-rule="nonzero"/><path fill="#ffffff" d="M 218.425781 76.03125 C 217.265625 76.03125 216.292969 75.121094 216.238281 73.949219 C 216.007812 69.132812 215.78125 64.324219 215.5625 59.515625 C 215.503906 58.308594 216.4375 57.28125 217.648438 57.226562 C 218.847656 57.171875 219.882812 58.105469 219.9375 59.316406 C 220.15625 64.117188 220.382812 68.921875 220.617188 73.738281 C 220.679688 74.941406 219.746094 75.96875 218.535156 76.03125 C 218.5 76.03125 218.464844 76.03125 218.425781 76.03125 " fill-opacity="1" fill-rule="nonzero"/><path fill="#ffffff" d="M 182.636719 109.558594 C 182.070312 109.558594 181.496094 109.515625 180.925781 109.441406 C 179.882812 109.289062 179.089844 108.417969 179.046875 107.363281 C 178.636719 97.792969 178.28125 87.367188 177.925781 74.546875 C 177.796875 69.585938 177.664062 64.625 177.546875 59.652344 C 177.519531 58.441406 178.480469 57.441406 179.691406 57.414062 C 180.925781 57.378906 181.90625 58.34375 181.933594 59.550781 C 182.050781 64.523438 182.179688 69.476562 182.308594 74.429688 C 182.636719 86.320312 182.96875 96.152344 183.34375 105.136719 C 185.667969 104.925781 187.925781 103.707031 189.316406 101.824219 C 190.898438 99.671875 191.425781 96.726562 191.734375 94.128906 C 192.496094 87.703125 192.257812 81.246094 191.921875 74.640625 C 191.859375 73.433594 192.789062 72.402344 193.996094 72.347656 C 195.203125 72.277344 196.234375 73.210938 196.296875 74.421875 C 196.648438 81.21875 196.894531 87.875 196.085938 94.644531 C 195.714844 97.800781 195.039062 101.4375 192.851562 104.425781 C 190.460938 107.652344 186.589844 109.558594 182.636719 109.558594 " fill-opacity="1" fill-rule="nonzero"/><path fill="#ffffff" d="M 243.480469 124.949219 C 242.832031 124.949219 242.1875 124.660156 241.757812 124.105469 C 232.597656 112.414062 224.972656 99.601562 219.082031 86.046875 C 218.601562 84.9375 219.109375 83.640625 220.21875 83.164062 C 221.328125 82.683594 222.625 83.191406 223.101562 84.300781 C 228.84375 97.515625 236.28125 110 245.207031 121.40625 C 245.957031 122.359375 245.785156 123.738281 244.832031 124.484375 C 244.433594 124.796875 243.953125 124.949219 243.480469 124.949219 " fill-opacity="1" fill-rule="nonzero"/><path fill="#ffffff" d="M 132.109375 125.421875 C 130.898438 125.421875 129.917969 124.449219 129.917969 123.238281 L 129.917969 123.222656 C 129.917969 122.714844 130.097656 122.214844 130.425781 121.824219 C 139.914062 110.414062 147.296875 97.601562 152.386719 83.75 C 152.796875 82.613281 154.058594 82.027344 155.195312 82.449219 C 156.332031 82.867188 156.914062 84.121094 156.496094 85.257812 C 151.25 99.5625 143.632812 112.78125 133.851562 124.566406 C 133.445312 125.085938 132.816406 125.421875 132.109375 125.421875 " fill-opacity="1" fill-rule="nonzero"/><path fill="#ffffff" d="M 231.214844 172.265625 C 231.234375 173.960938 231.542969 175.585938 232.136719 177.105469 C 232.988281 179.300781 234.34375 180.929688 235.953125 181.703125 C 237.507812 182.457031 239.53125 182.511719 241.496094 182.511719 C 243.789062 182.511719 246.078125 182.449219 248.386719 182.394531 C 249.058594 182.375 249.730469 182.359375 250.40625 182.339844 L 248.742188 172.265625 C 242.734375 171.824219 236.890625 172.015625 231.214844 172.265625 Z M 241.398438 186.894531 C 238.96875 186.894531 236.40625 186.792969 234.050781 185.65625 C 231.441406 184.394531 229.308594 181.921875 228.046875 178.703125 C 226.980469 175.964844 226.609375 173.011719 226.953125 169.921875 C 227.070312 168.84375 227.953125 168.015625 229.035156 167.96875 C 236.007812 167.652344 243.222656 167.332031 250.832031 168.039062 C 251.824219 168.125 252.632812 168.875 252.792969 169.859375 L 255.148438 184.128906 C 255.25 184.757812 255.074219 185.394531 254.660156 185.890625 C 254.257812 186.375 253.65625 186.664062 253.019531 186.675781 C 251.503906 186.699219 249.996094 186.738281 248.496094 186.78125 C 246.160156 186.835938 243.832031 186.894531 241.503906 186.894531 C 241.46875 186.894531 241.433594 186.894531 241.398438 186.894531 " fill-opacity="1" fill-rule="nonzero"/><path fill="#ffffff" d="M 246.886719 217.816406 C 244.679688 217.816406 242.605469 217.679688 240.578125 217.40625 C 238.707031 217.148438 236.558594 216.707031 234.769531 215.386719 C 231.34375 212.84375 230.742188 208.1875 230.410156 205.6875 C 229.21875 196.570312 228.40625 187.320312 227.988281 178.203125 L 230.179688 178.09375 L 232.371094 178.105469 C 232.78125 187 233.582031 196.125 234.761719 205.117188 C 235.097656 207.6875 235.605469 210.542969 237.378906 211.867188 C 238.363281 212.589844 239.789062 212.871094 241.171875 213.0625 C 244.34375 213.496094 247.566406 213.550781 251.476562 213.242188 C 252.539062 203.855469 251.769531 194.171875 249.230469 185.113281 C 248.902344 183.949219 249.578125 182.738281 250.742188 182.410156 C 251.914062 182.082031 253.121094 182.765625 253.449219 183.929688 C 256.304688 194.125 257.050781 205.0625 255.601562 215.570312 C 255.464844 216.566406 254.667969 217.339844 253.667969 217.449219 C 253.414062 217.476562 253.15625 217.503906 252.902344 217.515625 C 250.769531 217.722656 248.785156 217.816406 246.886719 217.816406 " fill-opacity="1" fill-rule="nonzero"/><path fill="#ffffff" d="M 124.992188 182.082031 C 128.371094 182.347656 132.542969 182.292969 137.207031 181.914062 C 138.433594 181.8125 139.808594 181.65625 140.660156 181.03125 C 141.316406 180.539062 141.804688 179.664062 142.199219 178.859375 C 143.351562 176.523438 143.941406 174.320312 143.996094 172.058594 C 139.125 172.183594 133.851562 172.121094 127.371094 171.875 C 127.328125 171.988281 127.289062 172.105469 127.246094 172.214844 C 126.21875 175.167969 125.234375 177.96875 124.992188 182.082031 Z M 129.5625 186.636719 C 126.917969 186.636719 124.546875 186.5 122.457031 186.226562 C 121.371094 186.082031 120.554688 185.148438 120.554688 184.054688 C 120.554688 178.074219 121.855469 174.359375 123.109375 170.769531 C 123.328125 170.160156 123.542969 169.550781 123.746094 168.921875 C 124.054688 167.996094 124.960938 167.394531 125.917969 167.425781 C 134.042969 167.761719 140.242188 167.824219 146.011719 167.605469 C 147.132812 167.550781 148.140625 168.414062 148.269531 169.558594 C 148.6875 173.359375 147.988281 177.039062 146.132812 180.804688 C 145.542969 181.992188 144.6875 183.5 143.269531 184.554688 C 141.496094 185.867188 139.390625 186.136719 137.5625 186.285156 C 134.671875 186.519531 132 186.636719 129.5625 186.636719 " fill-opacity="1" fill-rule="nonzero"/><path fill="#ffffff" d="M 130.6875 218.230469 C 130.550781 218.230469 130.40625 218.222656 130.261719 218.222656 C 128.128906 218.175781 126.070312 217.824219 124.074219 217.488281 C 123.246094 217.34375 122.425781 217.207031 121.59375 217.09375 C 121.238281 217.039062 120.882812 216.996094 120.535156 216.957031 C 119.417969 216.824219 118.507812 215.859375 118.519531 214.734375 C 118.671875 204.40625 119.863281 193.980469 122.0625 183.746094 C 122.320312 182.558594 123.484375 181.8125 124.671875 182.066406 C 125.855469 182.320312 126.601562 183.484375 126.351562 184.667969 C 124.347656 193.980469 123.207031 203.453125 122.945312 212.859375 C 123.570312 212.953125 124.183594 213.058594 124.808594 213.167969 C 126.734375 213.488281 128.542969 213.796875 130.355469 213.839844 C 133.480469 213.898438 136.050781 213.007812 137.472656 211.371094 C 138.6875 209.980469 139.234375 207.960938 139.695312 206 C 141.761719 197.226562 142.644531 188.191406 142.324219 179.148438 L 144.515625 179.058594 L 146.707031 179.058594 C 147.039062 188.429688 146.121094 197.851562 143.960938 207 C 143.40625 209.386719 142.652344 212.105469 140.777344 214.257812 C 138.53125 216.824219 134.960938 218.230469 130.6875 218.230469 " fill-opacity="1" fill-rule="nonzero"/><path fill="#ffffff" d="M 184.878906 66.25 C 184.878906 64.960938 185.925781 63.914062 187.222656 63.914062 C 188.507812 63.914062 189.558594 64.960938 189.558594 66.25 C 189.558594 67.542969 188.507812 68.585938 187.222656 68.585938 C 185.925781 68.585938 184.878906 67.542969 184.878906 66.25 " fill-opacity="1" fill-rule="nonzero"/></svg>