<svg xmlns="http://www.w3.org/2000/svg" xmlns:xlink="http://www.w3.org/1999/xlink" width="500" zoomAndPan="magnify" viewBox="0 0 375 374.999991" height="500" preserveAspectRatio="xMidYMid meet" version="1.0"><defs><clipPath id="8bd555270f"><path d="M 19.953125 19.964844 L 354.683594 19.964844 L 354.683594 354.695312 L 19.953125 354.695312 Z M 19.953125 19.964844 " clip-rule="nonzero"/></clipPath><clipPath id="c96240fdd9"><path d="M 187.320312 19.964844 C 94.886719 19.964844 19.953125 94.898438 19.953125 187.332031 C 19.953125 279.765625 94.886719 354.695312 187.320312 354.695312 C 279.75 354.695312 354.683594 279.765625 354.683594 187.332031 C 354.683594 94.898438 279.75 19.964844 187.320312 19.964844 Z M 187.320312 19.964844 " clip-rule="nonzero"/></clipPath><clipPath id="0ff1b30f59"><path d="M 61.59375 57.105469 L 312.875 57.105469 L 312.875 317.652344 L 61.59375 317.652344 Z M 61.59375 57.105469 " clip-rule="nonzero"/></clipPath></defs><g clip-path="url(#8bd555270f)"><g clip-path="url(#c96240fdd9)"><path fill="#222222" d="M 19.953125 19.964844 L 354.683594 19.964844 L 354.683594 354.695312 L 19.953125 354.695312 Z M 19.953125 19.964844 " fill-opacity="1" fill-rule="nonzero"/></g></g><g clip-path="url(#0ff1b30f59)"><path fill="#ffffff" d="M 312.714844 170.394531 C 307.910156 152.660156 301.683594 135.175781 294.203125 118.421875 C 290.140625 109.332031 285.636719 100.292969 280.8125 91.558594 C 280.808594 91.558594 280.808594 91.558594 280.808594 91.554688 C 280.496094 90.988281 280.179688 90.421875 279.867188 89.859375 C 279.84375 89.816406 279.8125 89.78125 279.785156 89.742188 C 279.742188 89.671875 279.699219 89.605469 279.644531 89.542969 C 279.601562 89.492188 279.554688 89.445312 279.507812 89.398438 C 279.457031 89.347656 279.40625 89.296875 279.351562 89.25 C 279.296875 89.203125 279.238281 89.167969 279.179688 89.128906 C 279.121094 89.089844 279.066406 89.050781 279.003906 89.019531 C 278.933594 88.984375 278.863281 88.953125 278.789062 88.925781 C 278.742188 88.90625 278.699219 88.882812 278.652344 88.867188 L 232.238281 74.0625 L 225.898438 62.167969 C 225.621094 61.648438 225.140625 61.269531 224.574219 61.113281 C 215.191406 58.546875 202.304688 57.195312 187.296875 57.195312 C 172.292969 57.195312 159.402344 58.546875 150.019531 61.113281 C 149.535156 61.246094 149.109375 61.546875 148.824219 61.964844 C 147.664062 63.644531 146.542969 65.980469 145.460938 68.242188 C 144.453125 70.351562 143.40625 72.535156 142.4375 73.941406 C 142.410156 73.980469 142.394531 74.019531 142.375 74.058594 L 95.945312 88.867188 C 95.898438 88.882812 95.855469 88.90625 95.808594 88.925781 C 95.734375 88.953125 95.660156 88.980469 95.589844 89.019531 C 95.53125 89.050781 95.476562 89.089844 95.421875 89.125 C 95.359375 89.167969 95.300781 89.203125 95.242188 89.25 C 95.1875 89.296875 95.140625 89.347656 95.089844 89.398438 C 95.039062 89.445312 94.992188 89.492188 94.949219 89.542969 C 94.898438 89.605469 94.855469 89.671875 94.808594 89.742188 C 94.785156 89.78125 94.75 89.816406 94.726562 89.859375 C 94.414062 90.421875 94.097656 90.988281 93.785156 91.554688 C 88.957031 100.292969 84.453125 109.332031 80.394531 118.421875 C 72.914062 135.171875 66.683594 152.65625 61.882812 170.394531 C 61.574219 171.53125 62.242188 172.707031 63.382812 173.015625 L 107.257812 185.046875 C 107.445312 185.101562 107.636719 185.125 107.824219 185.125 C 108.765625 185.125 109.625 184.5 109.886719 183.550781 C 110.199219 182.410156 109.527344 181.234375 108.386719 180.921875 L 66.574219 169.457031 C 71.242188 152.636719 77.199219 136.066406 84.300781 120.164062 C 87.769531 112.394531 91.574219 104.660156 95.625 97.125 C 101.015625 107.625 105.375 118.597656 108.597656 129.792969 C 114.636719 150.777344 116.097656 170.964844 114.179688 206.929688 C 113.199219 225.316406 111.527344 244.070312 109.214844 262.664062 C 107.457031 276.777344 105.289062 291.125 102.769531 305.308594 C 102.566406 306.460938 103.328125 307.5625 104.472656 307.78125 C 104.503906 307.792969 104.53125 307.808594 104.5625 307.816406 C 126.277344 314.03125 155.519531 317.453125 186.902344 317.453125 C 187.042969 317.453125 187.183594 317.4375 187.316406 317.410156 C 187.453125 317.4375 187.589844 317.453125 187.734375 317.453125 C 219.09375 317.453125 248.324219 314.035156 270.03125 307.828125 C 270.097656 307.808594 270.15625 307.777344 270.21875 307.753906 C 271.308594 307.488281 272.023438 306.425781 271.824219 305.308594 C 269.304688 291.121094 267.136719 276.773438 265.378906 262.664062 C 263.066406 244.074219 261.398438 225.320312 260.414062 206.929688 C 258.5 170.964844 259.957031 150.777344 265.996094 129.792969 C 269.21875 118.597656 273.578125 107.625 278.96875 97.125 C 283.019531 104.660156 286.824219 112.394531 290.292969 120.164062 C 297.398438 136.070312 303.355469 152.640625 308.019531 169.457031 L 266.207031 180.921875 C 265.066406 181.234375 264.394531 182.410156 264.707031 183.550781 C 264.96875 184.5 265.832031 185.125 266.769531 185.125 C 266.957031 185.125 267.148438 185.101562 267.335938 185.046875 L 311.214844 173.015625 C 312.351562 172.707031 313.019531 171.53125 312.714844 170.394531 Z M 149.320312 70.089844 C 150.1875 68.277344 151.082031 66.414062 151.929688 65.03125 C 160.882812 62.703125 173.085938 61.472656 187.296875 61.472656 C 201.453125 61.472656 213.617188 62.691406 222.558594 65.003906 L 227.363281 74.015625 L 200.726562 99.519531 L 190.863281 92.132812 C 194.28125 89.523438 197.730469 86.671875 201.074219 83.902344 C 205.117188 80.550781 209.300781 77.085938 213.386719 74.101562 C 214.339844 73.402344 214.546875 72.066406 213.851562 71.109375 C 213.152344 70.15625 211.816406 69.949219 210.863281 70.644531 C 206.671875 73.707031 202.4375 77.214844 198.34375 80.609375 C 194.933594 83.433594 191.40625 86.355469 187.960938 88.972656 C 187.738281 89.140625 187.519531 89.304688 187.296875 89.472656 C 187.078125 89.304688 186.855469 89.140625 186.636719 88.972656 C 186.636719 88.972656 186.632812 88.972656 186.632812 88.96875 C 183.1875 86.351562 179.660156 83.433594 176.25 80.609375 C 172.15625 77.214844 167.925781 73.707031 163.734375 70.644531 C 162.777344 69.949219 161.441406 70.15625 160.742188 71.109375 C 160.046875 72.066406 160.253906 73.402344 161.207031 74.101562 C 165.292969 77.085938 169.476562 80.550781 173.523438 83.902344 C 176.863281 86.671875 180.3125 89.523438 183.730469 92.132812 L 173.867188 99.519531 L 147.320312 74.101562 C 148.003906 72.84375 148.667969 71.453125 149.320312 70.089844 Z M 261.886719 128.609375 C 255.699219 150.105469 254.195312 170.660156 256.144531 207.160156 C 257.128906 225.648438 258.808594 244.5 261.132812 263.191406 C 262.820312 276.746094 264.890625 290.515625 267.28125 304.152344 C 246.109375 309.972656 217.953125 313.171875 187.734375 313.171875 C 187.589844 313.171875 187.453125 313.1875 187.316406 313.214844 C 187.183594 313.1875 187.042969 313.171875 186.902344 313.171875 C 156.660156 313.171875 128.492188 309.96875 107.316406 304.144531 C 109.707031 290.511719 111.773438 276.746094 113.460938 263.191406 C 115.785156 244.496094 117.464844 225.644531 118.453125 207.160156 C 120.398438 170.660156 118.894531 150.105469 112.710938 128.609375 C 109.15625 116.253906 104.246094 104.167969 98.121094 92.664062 L 144.929688 77.734375 L 172.21875 103.863281 C 172.242188 103.886719 172.265625 103.902344 172.289062 103.921875 C 172.335938 103.960938 172.382812 103.996094 172.429688 104.03125 C 172.507812 104.089844 172.589844 104.144531 172.675781 104.191406 C 172.726562 104.214844 172.773438 104.242188 172.824219 104.265625 C 172.921875 104.308594 173.019531 104.34375 173.121094 104.371094 C 173.164062 104.382812 173.207031 104.398438 173.25 104.40625 C 173.398438 104.4375 173.546875 104.460938 173.695312 104.460938 C 173.699219 104.460938 173.699219 104.457031 173.699219 104.457031 C 173.699219 104.457031 173.699219 104.460938 173.699219 104.460938 C 173.828125 104.460938 173.953125 104.445312 174.082031 104.421875 C 174.121094 104.414062 174.15625 104.402344 174.195312 104.394531 C 174.285156 104.371094 174.371094 104.347656 174.457031 104.3125 C 174.5 104.296875 174.542969 104.28125 174.585938 104.261719 C 174.664062 104.222656 174.742188 104.179688 174.820312 104.132812 C 174.859375 104.109375 174.898438 104.085938 174.933594 104.058594 C 174.949219 104.050781 174.964844 104.042969 174.980469 104.03125 L 187.296875 94.808594 L 191.113281 97.667969 L 191.113281 157.136719 L 182.675781 157.136719 L 182.675781 108.898438 C 182.675781 107.714844 181.71875 106.757812 180.535156 106.757812 C 179.355469 106.757812 178.394531 107.714844 178.394531 108.898438 L 178.394531 159.277344 C 178.394531 160.460938 179.355469 161.417969 180.535156 161.417969 L 193.253906 161.417969 C 194.433594 161.417969 195.390625 160.460938 195.390625 159.277344 L 195.390625 100.871094 L 199.613281 104.03125 C 199.628906 104.042969 199.644531 104.050781 199.660156 104.058594 C 199.695312 104.085938 199.738281 104.109375 199.777344 104.132812 C 199.851562 104.179688 199.929688 104.222656 200.007812 104.257812 C 200.050781 104.28125 200.09375 104.296875 200.136719 104.3125 C 200.222656 104.347656 200.3125 104.371094 200.398438 104.394531 C 200.4375 104.402344 200.472656 104.414062 200.511719 104.421875 C 200.640625 104.445312 200.765625 104.460938 200.894531 104.460938 C 200.894531 104.460938 200.894531 104.457031 200.894531 104.457031 C 200.898438 104.457031 200.898438 104.460938 200.898438 104.460938 C 201.046875 104.460938 201.195312 104.4375 201.34375 104.40625 C 201.386719 104.398438 201.429688 104.382812 201.472656 104.371094 C 201.574219 104.34375 201.671875 104.308594 201.769531 104.265625 C 201.820312 104.242188 201.867188 104.214844 201.917969 104.191406 C 202.003906 104.144531 202.085938 104.089844 202.164062 104.03125 C 202.214844 103.996094 202.261719 103.960938 202.304688 103.921875 C 202.328125 103.902344 202.355469 103.886719 202.375 103.863281 L 229.667969 77.734375 L 276.472656 92.664062 C 270.347656 104.167969 265.441406 116.253906 261.886719 128.609375 Z M 261.886719 128.609375 " fill-opacity="1" fill-rule="nonzero"/><path fill="#ffffff" d="M 312.714844 170.394531 C 307.910156 152.660156 301.683594 135.175781 294.203125 118.421875 C 290.140625 109.332031 285.636719 100.292969 280.8125 91.558594 C 280.808594 91.558594 280.808594 91.558594 280.808594 91.554688 C 280.496094 90.988281 280.179688 90.421875 279.867188 89.859375 C 279.84375 89.816406 279.8125 89.78125 279.785156 89.742188 C 279.742188 89.671875 279.699219 89.605469 279.644531 89.542969 C 279.601562 89.492188 279.554688 89.445312 279.507812 89.398438 C 279.457031 89.347656 279.40625 89.296875 279.351562 89.25 C 279.296875 89.203125 279.238281 89.167969 279.179688 89.128906 C 279.121094 89.089844 279.066406 89.050781 279.003906 89.019531 C 278.933594 88.984375 278.863281 88.953125 278.789062 88.925781 C 278.742188 88.90625 278.699219 88.882812 278.652344 88.867188 L 232.238281 74.0625 L 225.898438 62.167969 C 225.621094 61.648438 225.140625 61.269531 224.574219 61.113281 C 215.191406 58.546875 202.304688 57.195312 187.296875 57.195312 C 172.292969 57.195312 159.402344 58.546875 150.019531 61.113281 C 149.535156 61.246094 149.109375 61.546875 148.824219 61.964844 C 147.664062 63.644531 146.542969 65.980469 145.460938 68.242188 C 144.453125 70.351562 143.40625 72.535156 142.4375 73.941406 C 142.410156 73.980469 142.394531 74.019531 142.375 74.058594 L 95.945312 88.867188 C 95.898438 88.882812 95.855469 88.90625 95.808594 88.925781 C 95.734375 88.953125 95.660156 88.980469 95.589844 89.019531 C 95.53125 89.050781 95.476562 89.089844 95.421875 89.125 C 95.359375 89.167969 95.300781 89.203125 95.242188 89.25 C 95.1875 89.296875 95.140625 89.347656 95.089844 89.398438 C 95.039062 89.445312 94.992188 89.492188 94.949219 89.542969 C 94.898438 89.605469 94.855469 89.671875 94.808594 89.742188 C 94.785156 89.78125 94.75 89.816406 94.726562 89.859375 C 94.414062 90.421875 94.097656 90.988281 93.785156 91.554688 C 88.957031 100.292969 84.453125 109.332031 80.394531 118.421875 C 72.914062 135.171875 66.683594 152.65625 61.882812 170.394531 C 61.574219 171.53125 62.242188 172.707031 63.382812 173.015625 L 107.257812 185.046875 C 107.445312 185.101562 107.636719 185.125 107.824219 185.125 C 108.765625 185.125 109.625 184.5 109.886719 183.550781 C 110.199219 182.410156 109.527344 181.234375 108.386719 180.921875 L 66.574219 169.457031 C 71.242188 152.636719 77.199219 136.066406 84.300781 120.164062 C 87.769531 112.394531 91.574219 104.660156 95.625 97.125 C 101.015625 107.625 105.375 118.597656 108.597656 129.792969 C 114.636719 150.777344 116.097656 170.964844 114.179688 206.929688 C 113.199219 225.316406 111.527344 244.070312 109.214844 262.664062 C 107.457031 276.777344 105.289062 291.125 102.769531 305.308594 C 102.566406 306.460938 103.328125 307.5625 104.472656 307.78125 C 104.503906 307.792969 104.53125 307.808594 104.5625 307.816406 C 126.277344 314.03125 155.519531 317.453125 186.902344 317.453125 C 187.042969 317.453125 187.183594 317.4375 187.316406 317.410156 C 187.453125 317.4375 187.589844 317.453125 187.734375 317.453125 C 219.09375 317.453125 248.324219 314.035156 270.03125 307.828125 C 270.097656 307.808594 270.15625 307.777344 270.21875 307.753906 C 271.308594 307.488281 272.023438 306.425781 271.824219 305.308594 C 269.304688 291.121094 267.136719 276.773438 265.378906 262.664062 C 263.066406 244.074219 261.398438 225.320312 260.414062 206.929688 C 258.5 170.964844 259.957031 150.777344 265.996094 129.792969 C 269.21875 118.597656 273.578125 107.625 278.96875 97.125 C 283.019531 104.660156 286.824219 112.394531 290.292969 120.164062 C 297.398438 136.070312 303.355469 152.640625 308.019531 169.457031 L 266.207031 180.921875 C 265.066406 181.234375 264.394531 182.410156 264.707031 183.550781 C 264.96875 184.5 265.832031 185.125 266.769531 185.125 C 266.957031 185.125 267.148438 185.101562 267.335938 185.046875 L 311.214844 173.015625 C 312.351562 172.707031 313.019531 171.53125 312.714844 170.394531 Z M 149.320312 70.089844 C 150.1875 68.277344 151.082031 66.414062 151.929688 65.03125 C 160.882812 62.703125 173.085938 61.472656 187.296875 61.472656 C 201.453125 61.472656 213.617188 62.691406 222.558594 65.003906 L 227.363281 74.015625 L 200.726562 99.519531 L 190.863281 92.132812 C 194.28125 89.523438 197.730469 86.671875 201.074219 83.902344 C 205.117188 80.550781 209.300781 77.085938 213.386719 74.101562 C 214.339844 73.402344 214.546875 72.066406 213.851562 71.109375 C 213.152344 70.15625 211.816406 69.949219 210.863281 70.644531 C 206.671875 73.707031 202.4375 77.214844 198.34375 80.609375 C 194.933594 83.433594 191.40625 86.355469 187.960938 88.972656 C 187.738281 89.140625 187.519531 89.304688 187.296875 89.472656 C 187.078125 89.304688 186.855469 89.140625 186.636719 88.972656 C 186.636719 88.972656 186.632812 88.972656 186.632812 88.96875 C 183.1875 86.351562 179.660156 83.433594 176.25 80.609375 C 172.15625 77.214844 167.925781 73.707031 163.734375 70.644531 C 162.777344 69.949219 161.441406 70.15625 160.742188 71.109375 C 160.046875 72.066406 160.253906 73.402344 161.207031 74.101562 C 165.292969 77.085938 169.476562 80.550781 173.523438 83.902344 C 176.863281 86.671875 180.3125 89.523438 183.730469 92.132812 L 173.867188 99.519531 L 147.320312 74.101562 C 148.003906 72.84375 148.667969 71.453125 149.320312 70.089844 Z M 261.886719 128.609375 C 255.699219 150.105469 254.195312 170.660156 256.144531 207.160156 C 257.128906 225.648438 258.808594 244.5 261.132812 263.191406 C 262.820312 276.746094 264.890625 290.515625 267.28125 304.152344 C 246.109375 309.972656 217.953125 313.171875 187.734375 313.171875 C 187.589844 313.171875 187.453125 313.1875 187.316406 313.214844 C 187.183594 313.1875 187.042969 313.171875 186.902344 313.171875 C 156.660156 313.171875 128.492188 309.96875 107.316406 304.144531 C 109.707031 290.511719 111.773438 276.746094 113.460938 263.191406 C 115.785156 244.496094 117.464844 225.644531 118.453125 207.160156 C 120.398438 170.660156 118.894531 150.105469 112.710938 128.609375 C 109.15625 116.253906 104.246094 104.167969 98.121094 92.664062 L 144.929688 77.734375 L 172.21875 103.863281 C 172.242188 103.886719 172.265625 103.902344 172.289062 103.921875 C 172.335938 103.960938 172.382812 103.996094 172.429688 104.03125 C 172.507812 104.089844 172.589844 104.144531 172.675781 104.191406 C 172.726562 104.214844 172.773438 104.242188 172.824219 104.265625 C 172.921875 104.308594 173.019531 104.34375 173.121094 104.371094 C 173.164062 104.382812 173.207031 104.398438 173.25 104.40625 C 173.398438 104.4375 173.546875 104.460938 173.695312 104.460938 C 173.699219 104.460938 173.699219 104.457031 173.699219 104.457031 C 173.699219 104.457031 173.699219 104.460938 173.699219 104.460938 C 173.828125 104.460938 173.953125 104.445312 174.082031 104.421875 C 174.121094 104.414062 174.15625 104.402344 174.195312 104.394531 C 174.285156 104.371094 174.371094 104.347656 174.457031 104.3125 C 174.5 104.296875 174.542969 104.28125 174.585938 104.261719 C 174.664062 104.222656 174.742188 104.179688 174.820312 104.132812 C 174.859375 104.109375 174.898438 104.085938 174.933594 104.058594 C 174.949219 104.050781 174.964844 104.042969 174.980469 104.03125 L 187.296875 94.808594 L 191.113281 97.667969 L 191.113281 157.136719 L 182.675781 157.136719 L 182.675781 108.898438 C 182.675781 107.714844 181.71875 106.757812 180.535156 106.757812 C 179.355469 106.757812 178.394531 107.714844 178.394531 108.898438 L 178.394531 159.277344 C 178.394531 160.460938 179.355469 161.417969 180.535156 161.417969 L 193.253906 161.417969 C 194.433594 161.417969 195.390625 160.460938 195.390625 159.277344 L 195.390625 100.871094 L 199.613281 104.03125 C 199.628906 104.042969 199.644531 104.050781 199.660156 104.058594 C 199.695312 104.085938 199.738281 104.109375 199.777344 104.132812 C 199.851562 104.179688 199.929688 104.222656 200.007812 104.257812 C 200.050781 104.28125 200.09375 104.296875 200.136719 104.3125 C 200.222656 104.347656 200.3125 104.371094 200.398438 104.394531 C 200.4375 104.402344 200.472656 104.414062 200.511719 104.421875 C 200.640625 104.445312 200.765625 104.460938 200.894531 104.460938 C 200.894531 104.460938 200.894531 104.457031 200.894531 104.457031 C 200.898438 104.457031 200.898438 104.460938 200.898438 104.460938 C 201.046875 104.460938 201.195312 104.4375 201.34375 104.40625 C 201.386719 104.398438 201.429688 104.382812 201.472656 104.371094 C 201.574219 104.34375 201.671875 104.308594 201.769531 104.265625 C 201.820312 104.242188 201.867188 104.214844 201.917969 104.191406 C 202.003906 104.144531 202.085938 104.089844 202.164062 104.03125 C 202.214844 103.996094 202.261719 103.960938 202.304688 103.921875 C 202.328125 103.902344 202.355469 103.886719 202.375 103.863281 L 229.667969 77.734375 L 276.472656 92.664062 C 270.347656 104.167969 265.441406 116.253906 261.886719 128.609375 Z M 261.886719 128.609375 " fill-opacity="1" fill-rule="nonzero"/></g></svg>