<svg xmlns="http://www.w3.org/2000/svg" xmlns:xlink="http://www.w3.org/1999/xlink" width="500" zoomAndPan="magnify" viewBox="0 0 375 374.999991" height="500" preserveAspectRatio="xMidYMid meet" version="1.0"><defs><g/></defs><g fill="#000000" fill-opacity="1"><g transform="translate(2.590183, 211.925278)"><g><path d="M 48.9375 0 C 47.476562 0 46.035156 -0.738281 44.609375 -2.21875 C 43.179688 -3.707031 41.898438 -5.554688 40.765625 -7.765625 C 39.640625 -9.972656 38.316406 -12.367188 36.796875 -14.953125 C 35.285156 -17.546875 33.773438 -19.972656 32.265625 -22.234375 C 30.753906 -24.503906 28.835938 -26.425781 26.515625 -28 C 24.191406 -29.570312 21.71875 -30.414062 19.09375 -30.53125 L 19.09375 -19.71875 C 19.09375 -13.4375 19.28125 -9.175781 19.65625 -6.9375 C 20.039062 -4.695312 20.582031 -3.285156 21.28125 -2.703125 C 22.675781 -1.597656 24.828125 -1.046875 27.734375 -1.046875 L 27.90625 0 L 4.53125 0 L 4.703125 -1.046875 C 7.554688 -1.046875 9.648438 -1.566406 10.984375 -2.609375 C 12.085938 -3.484375 12.726562 -6.332031 12.90625 -11.15625 C 13.019531 -13.082031 13.078125 -15.9375 13.078125 -19.71875 L 13.078125 -41.78125 C 13.078125 -48.226562 12.898438 -52.5 12.546875 -54.59375 C 12.203125 -56.6875 11.679688 -58 10.984375 -58.53125 C 9.648438 -59.507812 7.554688 -60 4.703125 -60 L 4.53125 -61.046875 L 24.765625 -61.046875 C 39.421875 -61.046875 46.75 -56.101562 46.75 -46.21875 C 46.75 -41.976562 45.25 -38.414062 42.25 -35.53125 C 39.257812 -32.65625 35.644531 -30.988281 31.40625 -30.53125 C 35.644531 -28.03125 39.566406 -23.4375 43.171875 -16.75 C 44.566406 -14.132812 46.050781 -11.632812 47.625 -9.25 C 51.050781 -3.78125 55.46875 -1.046875 60.875 -1.046875 L 61.046875 0 Z M 19.09375 -59.046875 L 19.09375 -32.265625 L 24.59375 -32.265625 C 29.007812 -32.265625 32.671875 -33.398438 35.578125 -35.671875 C 38.492188 -37.941406 39.953125 -41.316406 39.953125 -45.796875 C 39.953125 -54.628906 34.890625 -59.046875 24.765625 -59.046875 Z M 19.09375 -59.046875 "/></g></g></g><g fill="#000000" fill-opacity="1"><g transform="translate(59.286339, 211.925278)"><g><path d="M 38.640625 -1.046875 C 40.847656 -1.046875 42.398438 -1.21875 43.296875 -1.5625 C 44.203125 -1.914062 44.65625 -2.816406 44.65625 -4.265625 C 44.65625 -5.722656 43.113281 -10.664062 40.03125 -19.09375 L 13.4375 -19.09375 C 10.9375 -11.71875 9.6875 -7.082031 9.6875 -5.1875 C 9.6875 -3.300781 10.164062 -2.140625 11.125 -1.703125 C 12.082031 -1.265625 13.8125 -1.046875 16.3125 -1.046875 L 16.484375 0 L -3.140625 0 L -2.96875 -1.046875 C -1.28125 -1.046875 0.0390625 -1.191406 1 -1.484375 C 1.957031 -1.773438 3.003906 -2.546875 4.140625 -3.796875 C 5.273438 -5.046875 6.363281 -6.863281 7.40625 -9.25 C 8.457031 -11.632812 9.707031 -14.976562 11.15625 -19.28125 L 18.921875 -41.6875 C 21.660156 -49.59375 23.03125 -54.390625 23.03125 -56.078125 C 23.03125 -57.765625 22.617188 -58.851562 21.796875 -59.34375 C 20.984375 -59.84375 19.414062 -60.09375 17.09375 -60.09375 L 16.921875 -61.046875 L 31.3125 -61.046875 L 46.75 -19.28125 C 49.363281 -12.351562 51.117188 -7.957031 52.015625 -6.09375 C 52.921875 -4.238281 53.78125 -3.050781 54.59375 -2.53125 C 56.050781 -1.539062 57.882812 -1.046875 60.09375 -1.046875 L 60.265625 0 L 38.46875 0 Z M 26.421875 -56.34375 L 14.125 -21.1875 L 39.328125 -21.1875 Z M 26.421875 -56.34375 "/></g></g></g><g fill="#000000" fill-opacity="1"><g transform="translate(116.418586, 211.925278)"><g><path d="M 58.34375 -16.3125 L 58.34375 -5.5 C 55.4375 -3.695312 51.929688 -2.179688 47.828125 -0.953125 C 43.734375 0.265625 39.566406 0.875 35.328125 0.875 C 26.078125 0.875 18.601562 -2.117188 12.90625 -8.109375 C 7.207031 -14.097656 4.359375 -21.566406 4.359375 -30.515625 C 4.359375 -39.472656 7.101562 -46.929688 12.59375 -52.890625 C 18.09375 -58.859375 25.492188 -61.84375 34.796875 -61.84375 C 38.867188 -61.84375 42.96875 -61.273438 47.09375 -60.140625 C 51.226562 -59.003906 54.28125 -57.796875 56.25 -56.515625 L 56.25 -45.359375 L 55.296875 -45.53125 C 54.660156 -50.175781 52.394531 -53.71875 48.5 -56.15625 C 44.601562 -58.601562 40.035156 -59.828125 34.796875 -59.828125 C 27.359375 -59.828125 21.691406 -57.148438 17.796875 -51.796875 C 13.898438 -46.453125 11.953125 -39.375 11.953125 -30.5625 C 11.953125 -21.757812 13.984375 -14.65625 18.046875 -9.25 C 22.117188 -3.84375 28.035156 -1.140625 35.796875 -1.140625 C 43.566406 -1.140625 49.050781 -3.578125 52.25 -8.453125 L 52.25 -15.265625 C 52.25 -21.710938 51.882812 -25.675781 51.15625 -27.15625 C 50.425781 -28.644531 48.316406 -29.390625 44.828125 -29.390625 L 44.65625 -30.265625 L 66.03125 -30.265625 L 65.84375 -29.390625 C 62.53125 -29.390625 60.453125 -28.601562 59.609375 -27.03125 C 58.765625 -25.46875 58.34375 -21.894531 58.34375 -16.3125 Z M 58.34375 -16.3125 "/></g></g></g><g fill="#000000" fill-opacity="1"><g transform="translate(185.762314, 211.925278)"><g><path d="M 59.046875 -41.421875 L 59.046875 0.4375 L 56.34375 0.4375 L 15.265625 -51.453125 L 15.265625 -19.890625 C 15.265625 -14.066406 15.523438 -9.875 16.046875 -7.3125 C 16.566406 -4.757812 17.4375 -3.078125 18.65625 -2.265625 C 19.882812 -1.453125 21.894531 -1.046875 24.6875 -1.046875 L 24.859375 0 L 3.40625 0 L 3.578125 -1.046875 C 6.367188 -1.046875 8.375 -1.453125 9.59375 -2.265625 C 10.8125 -3.078125 11.695312 -4.757812 12.25 -7.3125 C 12.800781 -9.875 13.078125 -14.066406 13.078125 -19.890625 L 13.078125 -41.421875 C 13.078125 -47.242188 12.800781 -51.414062 12.25 -53.9375 C 11.695312 -56.46875 10.820312 -58.125 9.625 -58.90625 C 8.4375 -59.695312 6.421875 -60.09375 3.578125 -60.09375 L 3.40625 -61.046875 L 15.265625 -61.046875 L 56.859375 -9.15625 L 56.859375 -41.421875 C 56.859375 -47.179688 56.582031 -51.335938 56.03125 -53.890625 C 55.476562 -56.453125 54.59375 -58.125 53.375 -58.90625 C 52.15625 -59.695312 50.117188 -60.09375 47.265625 -60.09375 L 47.09375 -61.046875 L 68.734375 -61.046875 L 68.546875 -60.09375 C 65.703125 -60.09375 63.664062 -59.695312 62.4375 -58.90625 C 61.21875 -58.125 60.347656 -56.453125 59.828125 -53.890625 C 59.304688 -51.335938 59.046875 -47.179688 59.046875 -41.421875 Z M 59.046875 -41.421875 "/></g></g></g><g fill="#000000" fill-opacity="1"><g transform="translate(257.897236, 211.925278)"><g><path d="M 38.640625 -1.046875 C 40.847656 -1.046875 42.398438 -1.21875 43.296875 -1.5625 C 44.203125 -1.914062 44.65625 -2.816406 44.65625 -4.265625 C 44.65625 -5.722656 43.113281 -10.664062 40.03125 -19.09375 L 13.4375 -19.09375 C 10.9375 -11.71875 9.6875 -7.082031 9.6875 -5.1875 C 9.6875 -3.300781 10.164062 -2.140625 11.125 -1.703125 C 12.082031 -1.265625 13.8125 -1.046875 16.3125 -1.046875 L 16.484375 0 L -3.140625 0 L -2.96875 -1.046875 C -1.28125 -1.046875 0.0390625 -1.191406 1 -1.484375 C 1.957031 -1.773438 3.003906 -2.546875 4.140625 -3.796875 C 5.273438 -5.046875 6.363281 -6.863281 7.40625 -9.25 C 8.457031 -11.632812 9.707031 -14.976562 11.15625 -19.28125 L 18.921875 -41.6875 C 21.660156 -49.59375 23.03125 -54.390625 23.03125 -56.078125 C 23.03125 -57.765625 22.617188 -58.851562 21.796875 -59.34375 C 20.984375 -59.84375 19.414062 -60.09375 17.09375 -60.09375 L 16.921875 -61.046875 L 31.3125 -61.046875 L 46.75 -19.28125 C 49.363281 -12.351562 51.117188 -7.957031 52.015625 -6.09375 C 52.921875 -4.238281 53.78125 -3.050781 54.59375 -2.53125 C 56.050781 -1.539062 57.882812 -1.046875 60.09375 -1.046875 L 60.265625 0 L 38.46875 0 Z M 26.421875 -56.34375 L 14.125 -21.1875 L 39.328125 -21.1875 Z M 26.421875 -56.34375 "/></g></g></g><g fill="#000000" fill-opacity="1"><g transform="translate(315.029483, 211.925278)"><g><path d="M 48.9375 0 C 47.476562 0 46.035156 -0.738281 44.609375 -2.21875 C 43.179688 -3.707031 41.898438 -5.554688 40.765625 -7.765625 C 39.640625 -9.972656 38.316406 -12.367188 36.796875 -14.953125 C 35.285156 -17.546875 33.773438 -19.972656 32.265625 -22.234375 C 30.753906 -24.503906 28.835938 -26.425781 26.515625 -28 C 24.191406 -29.570312 21.71875 -30.414062 19.09375 -30.53125 L 19.09375 -19.71875 C 19.09375 -13.4375 19.28125 -9.175781 19.65625 -6.9375 C 20.039062 -4.695312 20.582031 -3.285156 21.28125 -2.703125 C 22.675781 -1.597656 24.828125 -1.046875 27.734375 -1.046875 L 27.90625 0 L 4.53125 0 L 4.703125 -1.046875 C 7.554688 -1.046875 9.648438 -1.566406 10.984375 -2.609375 C 12.085938 -3.484375 12.726562 -6.332031 12.90625 -11.15625 C 13.019531 -13.082031 13.078125 -15.9375 13.078125 -19.71875 L 13.078125 -41.78125 C 13.078125 -48.226562 12.898438 -52.5 12.546875 -54.59375 C 12.203125 -56.6875 11.679688 -58 10.984375 -58.53125 C 9.648438 -59.507812 7.554688 -60 4.703125 -60 L 4.53125 -61.046875 L 24.765625 -61.046875 C 39.421875 -61.046875 46.75 -56.101562 46.75 -46.21875 C 46.75 -41.976562 45.25 -38.414062 42.25 -35.53125 C 39.257812 -32.65625 35.644531 -30.988281 31.40625 -30.53125 C 35.644531 -28.03125 39.566406 -23.4375 43.171875 -16.75 C 44.566406 -14.132812 46.050781 -11.632812 47.625 -9.25 C 51.050781 -3.78125 55.46875 -1.046875 60.875 -1.046875 L 61.046875 0 Z M 19.09375 -59.046875 L 19.09375 -32.265625 L 24.59375 -32.265625 C 29.007812 -32.265625 32.671875 -33.398438 35.578125 -35.671875 C 38.492188 -37.941406 39.953125 -41.316406 39.953125 -45.796875 C 39.953125 -54.628906 34.890625 -59.046875 24.765625 -59.046875 Z M 19.09375 -59.046875 "/></g></g></g></svg>